<svg xmlns="http://www.w3.org/2000/svg" width="187" height="210" viewBox="0 0 187 210">
  <g fill="none" fill-rule="evenodd" transform="translate(2 25)">
    <path fill="#221F20" d="M105.509567,0 L79.7755264,1.289625 L21.1019134,160.314286 L0,165.286937 L0,181 L70.7686122,181 L70.7686122,165.286937 L46.5786138,160.314286 L56.6148897,131.869812 L123.525004,131.869812 L133.302331,160.314286 L109.369673,165.286937 L109.369673,181 L184,181 L184,165.286937 L162.639138,160.314286 L105.509567,0 Z M90.5838236,33.3557143 L116.575205,111.185714 L63.5630807,111.185714 L90.5838236,33.3557143 Z"/>
    <polygon fill="#D91B5B" points="105.941 0 80.079 1.281 66 39 88.883 39 90.941 33.137 92.922 39 120 39"/>
  </g>
</svg>
