<svg xmlns="http://www.w3.org/2000/svg" width="1440" height="1024" style="background:#fad504" viewBox="0 0 1440 1024">
  <g fill="none" fill-rule="evenodd">
    <g fill="#1A1918" transform="translate(0 2)">
      <path d="M453.707596,506.252785 C451.651953,508.953268 449.598034,511.652029 447.547561,514.349068 C443.179536,516.95655 438.808065,519.565754 432.424028,523.375364 C435.175798,517.127052 437.159071,512.740489 439.045851,508.312592 C441.390972,502.806568 442.566117,498.184057 434.550317,495.728133 C432.243104,495.022012 429.513735,489.641712 430.047892,487.032508 C431.036943,482.210216 434.843242,478.831168 440.486351,480.210688 C440.053856,480.884086 439.619638,481.555763 439.187144,482.227439 C443.498307,487.041119 448.243688,491.551684 451.925924,496.804538 C453.602487,499.196739 453.178608,503.058016 453.707596,506.252785 Z M324.77246,414.307184 C320.85933,406.698297 317.144355,399.475193 313.207102,391.814638 C297.864738,405.118996 296.534515,404.752157 286.013347,385.464713 C277.88727,389.060765 282.424157,396.047921 281.205935,404.097704 C278.223272,398.791461 276.071137,395.439968 274.404912,391.861139 C272.755918,388.316754 271.59628,384.543311 270.219534,380.864591 C281.63843,373.970437 289.047703,374.495722 300.404568,382.468003 C308.659876,388.263365 317.173648,393.688443 325.086062,398.956796 C324.000518,396.76782 322.258477,393.252714 320.447513,389.599828 C330.706771,397.456719 332.140379,406.228123 324.77246,414.307184 Z M354.680077,538.860087 C343.598906,547.660769 333.020877,540.31883 322.673741,538.565583 C312.142235,536.779613 302.081131,532.224269 291.813257,528.88311 C291.208454,529.39634 290.60365,529.909569 289.998847,530.422799 C295.619556,536.695223 301.240265,542.969368 306.860974,549.241792 C307.186637,548.487448 307.5123,547.731381 307.837964,546.977037 C313.229502,547.817494 318.621041,548.65795 324.012579,549.500129 C324.229688,550.88826 324.44852,552.276391 324.665629,553.664522 C321.247025,555.002708 317.87839,557.334631 314.399478,557.515467 C295.512724,558.504036 285.453344,546.253694 277.244559,531.67315 C274.909776,527.527702 272.976473,523.156639 270.329812,517.82284 C273.436537,517.373334 276.389908,516.438153 279.276078,516.610378 C293.245142,517.44739 307.214206,518.399793 321.13847,519.775868 C323.5887,520.018705 327.145151,521.957955 327.936048,523.988484 C332.740014,536.343884 341.54671,540.925061 354.680077,538.860087 Z M194.248639,457.704364 C195.561631,465.845425 196.866008,473.989931 198.194508,482.129271 C198.652849,484.934811 198.649403,487.957355 199.743563,490.499391 C212.392743,519.868869 226.492762,548.380669 249.368461,571.501835 C250.579791,572.726352 251.687736,574.052482 252.907681,575.266667 C274.441096,596.701753 289.216565,599.576183 315.814132,588.316132 C318.545225,594.027103 321.393487,599.531405 323.786855,605.228598 C324.667352,607.324572 325.235971,610.188669 324.457136,612.091752 C324.031533,613.128545 320.13908,613.762332 318.398763,613.080322 C306.295801,608.340698 292.059658,608.723037 282.360403,598.000327 C280.840641,596.321136 277.692561,596.0938 275.283686,595.236121 C264.255931,591.31112 253.162698,587.554899 242.240051,583.350894 C240.06207,582.513882 237.120761,580.109625 236.957067,578.218598 C236.319525,570.866325 230.347307,569.026966 225.870727,565.160521 C219.705523,559.837056 214.48457,553.339018 209.301525,546.985649 C206.074184,543.029647 204.016818,538.122965 200.806707,534.151464 C195.015413,526.985194 186.954813,527.648259 180.415699,534.268577 C162.399104,552.507172 142.571544,567.5355 114.793663,567.547555 C119.451166,562.608151 123.738206,557.772081 128.328509,553.244294 C148.86598,532.990669 168.395446,512.42704 175.971858,482.978339 C178.394518,473.561092 186.370687,465.571588 191.803579,456.929353 C192.618599,457.18769 193.433619,457.446027 194.248639,457.704364 Z M12.0218769,286.099672 C14.1550583,278.136002 18.0526805,270.348001 17.4289231,261.466373 C17.2014757,258.214771 19.7413056,255.626234 21.498854,253.079031 C26.5905754,245.700924 22.8118461,240.170789 20.942297,231.631889 C19.6965053,225.93814 28.1051686,221.014236 33.1090126,205.100673 C34.7114832,200.0011 38.3006729,193.162057 41.4677064,190.332405 C47.7897117,184.683435 50.379511,176.952268 51.1824695,168.868041 C51.7200725,163.456741 52.4472151,158.66545 57.7146913,155.985633 C51.3857937,146.490886 54.9887681,136.846302 65.7580603,133.450031 C80.5042367,128.799964 89.4401646,114.555259 86.9313503,99.6974346 C85.852698,93.3096204 90.2844771,85.4596186 96.1343566,83.0346948 C98.8016949,81.9290122 100.078502,83.3033653 101.272601,85.2443377 C98.465693,83.0312503 98.3933233,79.6160345 97.7988584,76.5917688 C96.2601419,68.7882676 101.284663,61.9182243 101.219186,53.758218 C101.176108,48.3727516 109.1316,41.3132611 116.72352,38.3251626 C123.562451,35.6332905 127.468689,27.6816761 135.796367,27.5628411 C138.692876,18.8999386 144.559987,14.356651 153.788839,13.345692 C156.030575,13.0994107 156.81458,9.21057698 156.189099,6.58587254 C155.453341,3.49271692 157.076489,1.76530318 159.006346,0 L476.054308,0 C478.57863,0.990292027 481.121906,1.95130586 482.898408,4.16956 C485.448577,3.84233307 487.991853,3.31876998 490.550637,3.22576864 C499.017885,2.92093092 504.054467,6.93893318 506.635651,15.6001134 C511.555064,17.8545347 516.283214,20.0211214 521.948723,22.6182699 C522.917098,20.3483484 523.981966,17.8579792 525.064064,15.3228316 C527.912327,23.1504442 530.572773,30.4596605 532.762816,36.480636 C536.591515,41.3080944 539.555224,45.7394359 543.251245,49.4405447 C545.417165,51.610576 548.740999,53.8822198 551.553077,53.8942755 C558.047391,53.9201092 562.008767,56.3898114 565.580726,61.7821668 C571.380636,70.5380705 577.71298,79.0494152 584.727666,86.8477497 C587.763745,90.2216316 594.521691,101.02012 592.565988,104.972677 C597.187306,112.970792 610.353412,116.535844 606.778007,130.663436 C609.545284,129.559475 613.499768,136.14707 613.942602,140.202962 C614.697314,140.244296 615.452026,140.287352 616.206738,140.328686 C616.849449,138.826887 637.36452,163.084736 637.36452,167.009736 C637.703968,167.507466 643.331569,207.334428 660.079973,223.356492 C659.501015,224.116003 658.668765,225.204463 658.761811,225.082183 C660.114434,229.027851 662.332047,232.205397 661.958137,235.041938 C660.919116,242.933273 660.527975,251.761512 656.539029,258.130381 C653.585659,262.849338 651.469708,267.532127 650.66675,272.457754 C649.562251,279.241685 650.565088,286.339065 649.984407,293.245275 C649.214188,302.38524 651.119921,310.863862 653.757967,319.530209 C654.481664,321.910354 650.472041,325.692409 648.716215,328.876843 C647.16716,331.689273 645.731829,334.565425 643.970835,337.942752 C648.430183,339.370494 630.856421,368.238799 630.49285,381.849717 C631.590456,382.125276 633.156742,382.517949 633.00511,382.480059 C631.187254,399.836864 617.523176,406.989356 604.811965,413.24628 C605.94231,420.762166 606.898623,427.118979 607.87389,433.592906 C605.468461,434.888035 603.531712,435.933439 600.871266,437.366349 C608.547617,451.674777 572.75049,445.717525 561.169624,452.263786 C555.583377,452.263786 549.836882,451.425051 544.443621,452.449788 C535.178583,454.209925 525.725729,456.195675 517.156819,459.931229 C512.292545,462.051315 508.756771,467.614173 505.114166,472.031737 C501.042512,476.969419 497.95474,476.134129 501.554269,469.618869 C493.350653,469.785927 487.855729,469.851372 486.863231,478.359272 C486.509998,481.380093 483.637613,484.10641 480.927197,485.193148 C476.106,486.395277 471.284804,487.597405 466.27579,488.847756 C466.405022,488.024522 466.691054,486.202385 467.016718,484.137411 C460.227756,487.215066 456.419734,485.246538 455.578868,477.25359 C458.975072,476.187519 462.107644,475.204116 466.391237,473.860763 C457.734449,456.650349 439.16302,456.640015 425.461035,447.544829 C427.804433,443.032542 431.266114,437.333626 423.660409,433.308735 C408.299091,443.058375 406.93096,442.956763 397.89337,430.609974 C395.112308,432.652559 392.324353,434.700311 389.557076,436.732562 C385.023635,426.232022 386.89663,422.542969 398.241433,423.610762 C410.639042,424.778446 422.969451,427.425539 435.108597,430.348192 C444.078987,432.50789 450.964442,428.327997 450.071883,419.589315 C433.190802,417.018001 416.177043,414.424297 398.665313,411.756536 C402.842075,401.528111 448.162703,401.221551 457.555248,410.532018 C458.31513,399.390802 458.994026,389.350102 459.68843,379.312847 C459.902093,376.204191 459.21975,372.611584 460.546527,370.076436 C467.72146,356.355294 466.137944,343.106048 459.557475,329.837857 C459.069842,328.856176 458.563254,327.495601 458.863071,326.569032 C461.885365,317.26201 456.03204,314.318689 448.838153,312.136603 C447.528607,311.738763 446.410323,310.715749 444.830253,309.753013 C446.953096,301.391503 442.890057,299.285195 435.146505,297.859175 C429.932445,296.898161 425.543743,291.461027 421.337688,287.539471 C417.066156,285.217882 412.935917,282.567344 408.483461,280.674594 C404.491069,278.974736 400.166121,278.027501 395.948005,276.895984 C390.27388,275.371796 384.224123,274.73112 378.956646,272.344085 C373.29286,269.776215 371.738636,271.63452 371.307864,277.190489 C355.460635,275.76619 344.098601,284.458371 332.834783,294.037509 C322.420447,302.893303 311.308261,310.929307 300.504507,319.326984 C289.46469,327.908941 278.424873,336.490897 268.110476,344.507957 C278.788444,344.507957 290.026416,344.003339 301.197188,344.647459 C313.022732,345.327747 321.967275,352.569795 330.348369,360.073626 C338.150506,367.059059 350.032912,371.34401 350.074266,387.068125 C336.060402,381.420877 324.987846,375.380957 315.324776,366.828278 C303.032275,355.947122 288.71687,350.091482 272.29413,349.688476 C263.452972,349.471473 254.918524,350.253373 250.186927,359.550063 C249.578678,360.747024 248.382856,361.952597 247.166356,362.488216 C224.104563,372.63914 226.337684,385.793662 233.371324,409.212777 C234.086405,411.594645 233.731449,414.300295 233.872742,416.856109 C232.673474,417.111002 231.475928,417.367617 230.27666,417.624232 C228.134863,411.820259 225.994789,406.016287 224.475027,401.898394 C221.480302,405.273998 217.832528,409.02333 214.632755,413.124 C212.594344,415.734927 210.969473,418.750581 209.601342,421.78518 C206.894373,427.790656 204.49239,433.933911 200.201904,439.216042 C202.104192,428.603556 204.008203,417.989348 205.91049,407.37514 C205.069624,407.189137 204.228758,407.004857 203.389614,406.818854 C199.541962,429.642071 191.552008,450.801598 178.003377,471.8199 C167.997413,469.782482 157.60203,467.66584 146.028056,465.309807 C145.016605,466.740994 143.307303,469.157306 141.589385,471.583952 C138.349982,461.7947 136.976682,460.618406 130.439291,462.337208 C130.975171,458.546543 131.498989,454.852323 132.021084,451.158103 C131.459358,450.991045 130.895909,450.823987 130.332459,450.656929 C129.102175,452.971629 127.870168,455.284607 126.448622,457.95409 C122.923186,455.346608 119.099657,453.503803 116.67872,450.522594 C111.721399,444.420673 107.480883,439.508824 98.3243998,444.258781 C96.1946646,445.364464 90.8944498,440.368225 85.9422985,437.547185 C84.4604439,438.521977 82.3393241,440.562839 79.815002,441.427407 C76.2912896,442.63298 72.4798217,443.456214 68.7682928,443.554382 C61.0816028,443.75933 53.277743,442.61748 45.730623,443.607772 C42.6600824,444.010778 40.7509023,449.721749 34.4616357,447.692942 C28.172369,445.662413 27.2074404,439.464046 26.8714385,432.49239 C26.5216519,425.269286 31.2601405,417.801623 32.8023031,410.006733 C30.2073345,413.458116 27.6123658,416.909499 25.0173972,420.360882 C24.1937617,420.002655 23.3684032,419.644427 22.5447677,419.2862 C24.0507455,409.198999 25.5550002,399.110076 27.0540857,389.071098 C25.8375865,385.459546 23.9094524,381.50699 23.2236639,377.347763 C21.4850693,366.811056 9.83355675,362.779276 11.1827337,356.410406 C12.5491415,349.96748 10.4573142,345.090077 15.1923565,344.592347 C19.5345351,344.13423 14.2584435,324.225054 11.3050728,310.200797 L12.0218769,286.099672 Z M91.950702,588.827639 C92.3745813,588.738083 92.7398757,588.772528 92.9225229,588.60547 C94.1924378,587.449842 95.5381686,586.347604 96.6495595,585.04903 C107.782423,572.051231 121.291423,569.39036 137.00942,575.444058 C167.433963,587.160504 195.813202,602.576337 221.942089,622.085951 C223.115511,622.962575 223.87367,624.39204 224.826537,625.56489 C216.815906,618.553623 208.429643,618.793015 198.978512,621.800058 C194.303778,623.28808 188.831254,622.09284 183.761933,622.568181 C177.302081,623.172689 170.592381,623.375914 164.558131,625.421944 C160.72254,626.723963 157.920801,631.062303 153.580346,635.018304 C151.135286,645.606679 159.244132,653.320623 166.880852,661.368683 C167.894027,662.438199 167.706211,664.644397 168.074951,666.32531 C166.334634,665.88097 163.791358,666.022195 162.979784,664.904456 C154.357458,653.038175 140.584825,648.438053 129.186607,640.520883 C119.463228,633.767953 108.354488,631.778758 97.6041496,635.154362 C90.5274323,637.377783 83.7729322,642.690915 78.543364,648.202105 C71.5631395,655.554377 65.4117198,663.986499 60.3527372,672.787181 C54.4063648,683.129274 51.7958884,695.798123 44.4968929,704.848531 C35.2249631,716.347974 33.893017,730.243063 28.7616647,742.836133 C23.3528954,756.107769 20.8785428,770.447197 20.9733126,785.391135 C21.080144,801.916095 18.0888654,818.447944 16.7259037,835.000459 C16.1710698,841.739612 16.3502708,848.539043 16.1969161,855.310918 C15.5662664,855.304029 14.9373397,855.295418 14.3066899,855.288529 C16.8740892,860.568939 19.4414885,865.847626 22.5964603,872.33533 C22.2966432,873.368678 22.0674727,876.988841 20.3306012,879.613546 C16.0090997,886.146029 21.1490674,892.087781 20.6683262,898.206925 C20.1789696,904.424236 18.5489295,910.551991 17.3703382,916.975972 C16.8792585,916.817526 15.1475563,916.26124 13.9069338,915.861679 C15.0338326,919.874514 18.0871423,924.608971 16.8585814,927.560902 C13.5623165,935.474627 16.2692858,941.216599 19.5672738,945.022765 C18.6919457,952.090867 17.6512013,957.166328 17.5116313,962.26418 C17.127383,976.396939 19.8981065,990.713978 12.7024962,1004.24223 C8.88585904,1011.42055 6.55796884,1019.38939 3.55979789,1027 C2.41049903,1026.42649 0.485811134,1026.05621 0.268702204,1025.23642 C-0.225823693,1023.35745 0.113624396,1021.25975 0.113624396,1019.24989 L0.113624396,637.772177 C8.62739602,635.607313 17.187691,633.604339 25.6411546,631.224194 C31.9597137,629.446835 38.9588921,628.391098 44.1936296,624.855325 C51.9423507,619.619694 62.1740398,621.534832 69.1266949,613.385159 L91.950702,588.827639 Z"/>
      <path d="M72 1027C73.506738 1022.24808 75.0479157 1017.50651 76.5081601 1012.73908 77.148739 1010.64665 77.7342143 1008.5232 78.147491 1006.37562 78.7243564 1003.37658 79.1169693 1000.34308 79.8815312 995.451552 79.3511594 994.489793 73.0125279 992.002664 81.1954067 988.474492 87.6666312 985.684012 89.1337635 971.56098 84.0315182 965.497418 92.3642098 959.114993 89.3507338 951.167556 88.2245548 942.30662 86.9950565 932.626983 91.6271996 922.230335 90.5544022 912.493819 89.578036 903.632884 94.3995976 898.898203 98.1621376 892.881178 98.7648328 891.919419 99.7670288 890.7267 99.5948302 889.830438 96.483201 873.699432 106.541323 860.077962 108.39418 844.670862 110.030067 831.073522 119.561261 819.130821 129.097621 808.184351 137.461309 798.583998 143.844712 787.268681 151.257863 776.820326 152.626842 774.891638 154.564076 773.243893 156.532307 771.897776 159.8213 769.648501 163.346206 767.74739 167.938744 765 168.711916 768.009374 169.424818 770.784342 169.815709 772.304541L186.686008 772.304541C186.188354 775.60003 185.783688 778.283648 185.292921 781.530876 192.303128 782.740831 193.847749 786.158695 192.678521 793.489089 191.252716 802.431034 201.179967 811.628068 210.855808 812.662217 212.837814 812.874218 214.943803 812.44677 216.8311 812.934543 221.549343 814.15484 229.007265 814.513345 230.252261 817.414133 232.948892 823.69659 229.771827 830.175536 224.340682 835.244591 214.387602 844.529528 205.913707 868.914768 213.641982 883.47042 214.294614 884.699334 215.136666 885.990297 216.226683 886.793486 220.502375 889.947641 224.974373 892.831194 229.256953 895.975008 235.936538 900.880323 242.519692 905.91663 250 911.538955 234.302373 923.383412 218.200079 927.316626 201.32117 930.167431 173.016881 934.946924 144.84863 934.412614 116.539175 930.993027 114.495177 930.746554 110.755023 931.984086 110.322805 933.338822 109.026149 937.390964 108.983099 941.842976 108.232313 947.91688 103.099072 950.922807 102.701293 953.465091 109.179406 957.151833 111.907032 958.704781 114.751753 960.052622 119.73346 962.622483 113.033211 963.861738 108.323579 964.732147 101.413248 966.011045 106.921882 969.325494 110.992657 971.774704 115.120258 974.26011 106.317465 978.320869 105.494355 993.303969 114.846463 1001.3169 124.00743 1009.16437 134.659637 1015.2693 145.671739 1020.98125 141.614739 1020.1591 137.55774 1019.33868 132.56398 1018.32693 133.135679 1020.21081 133.493852 1021.38802 133.963954 1022.94096 131.640995 1022.53592 129.485068 1022.16018 126.859039 1021.70343 126.953748 1023.75794 127.027794 1025.37811 127.101839 1027L118.491908 1027C119.23925 1023.79931 120.854473 1020.51244 120.551403 1017.41344 119.89877 1010.75524 115.43366 1008.09575 110.703364 1011.56015 104.335458 1016.22244 98.6442937 1021.81029 92.6638354 1027L72 1027M308.739217 1027C309.205096 1019.36684 307.066523 1009.78847 310.898419 1004.66536 314.463853 999.899349 324.389992 999.880464 331.414275 997.145504 324.785388 997.725803 318.154781 998.306102 311.096117 998.924172 310.142011 994.13413 309.279018 989.795622 308 983.376279 316.578358 983.376279 324.680522 983.53423 332.772371 983.348809 362.114137 982.679233 390.849056 978.019672 418.691757 968.801846 446.225019 959.687031 474.765679 958.47321 503.28571 956.713427 512.831926 956.126261 522.379862 955.573432 532 955 529.930192 968.885972 528.056362 981.465412 526.167061 994.142714 525.436439 991.986337 524.937897 989.368124 523.693262 987.170542 522.489885 985.043351 520.519785 983.348809 518.886631 981.463696 517.097038 983.647543 514.006078 985.702625 513.77056 988.042707 513.186063 993.890336 513.646784 999.889048 514.155641 1005.78818 514.767644 1012.88054 515.864436 1019.93168 516.751497 1027L504.717728 1027C505.565249 1012.67795 506.412771 998.354174 507.289517 983.537664 492.314351 983.553115 501.465173 995.531655 496.765127 999.84956 491.740169 982.957365 491.740169 982.957365 483.902748 986.65205 487.394259 1000.06932 490.897805 1013.53466 494.40307 1027L482.369302 1027C480.994014 1013.44538 479.618726 999.892482 478.171236 985.609915 474.341059 985.79877 471.40482 985.942986 467.856577 986.118106 468.812402 994.460333 469.644451 1001.73982 470.478219 1009.01931 467.858296 1004.71858 466.173569 1000.19808 465.675027 995.548823 464.757022 986.995422 460.51254 985.014164 451.959969 988.389513 452.910637 1001.03419 453.887091 1014.0171 454.863546 1027L441.110668 1027C440.331911 1026.22913 439.527368 1024.76121 438.777836 1024.78868 421.213691 1025.42736 403.656424 1026.22913 386.099156 1027L382.660936 1027C381.624313 1026.56907 380.622072 1025.88061 379.547629 1025.74154 360.31079 1023.24522 341.065357 1020.81072 321.821642 1018.37277 318.500322 1017.95214 315.173845 1017.57272 311.849087 1017.1744 314.118312 1019.32735 316.540537 1019.96945 319.000583 1020.40382 331.618849 1022.63231 344.247429 1024.80757 356.87429 1027L308.739217 1027M334.495478 932.430262C334.984828 927.14252 335.424385 922.3799 335.92232 917 355.686911 918.801414 374.77328 919.957728 393.620984 922.74679 397.444783 923.311906 402.369189 929.585558 403.36506 934.017802 406.998269 950.169674 394.558476 964.118464 378.327507 962.929113 361.844137 961.722374 345.396824 959.990512 328 958.402972 329.184742 952.962214 330.130819 948.625604 331.082047 944.259435 347.901953 945.667876 364.095147 946.890265 380.257435 948.439551 386.825028 949.069003 390.01353 946.723338 389.383384 938.316158 371.471455 936.394765 353.264199 934.443812 334.495478 932.430262M366.46249 871.000984C361.775815 880.081628 363.610481 882.176501 376.934226 882.967018 379.956942 873.458463 379.653464 873.111323 366.46249 871.000984zM345 887.775429C346.801904 881.403168 349.367678 874.914047 350.347086 868.194645 351.519617 860.138237 357.823696 856.606685 363.391493 857.034595 372.704493 857.751217 383.815949 858.552046 388.585391 868.644897 391.470162 874.74907 391.521891 882.183375 393.156537 890.614419 398.363954 893.135484 405.800905 896.735777 414 900.705552 412.522266 905.558644 411.141094 910.095529 409.953044 914 388.335366 905.271652 366.965989 896.644696 345 887.775429L345 887.775429zM229.671448 630C238.185683 642.363362 247.042564 654.509823 255.146663 667.134843 274.165249 696.753892 288.587533 728.479979 297.954922 762.423278 305.205867 788.697574 304.515383 814.932277 296.691631 841 297.260978 838.292179 297.880509 835.594687 298.389287 832.876538 298.91537 830.063709 299.342812 827.233667 299.799673 824.408788 303.522056 801.400059 298.541574 779.797743 290.885684 758.080092 283.453034 737.001093 273.836447 717.199401 263.171156 697.649039 251.16297 675.638743 240.338469 652.988072 229 630.616275 229.223239 630.411423 229.446478 630.204851 229.671448 630M425.939069 842.47732C420.513729 846.656403 420.047475 851.139513 425.027132 856.488326 426.509887 858.080603 425.815649 861.708315 425.961353 863 407.760323 847.992748 389.66557 833.073096 371 817.681087 371.867369 815.609581 373.156423 812.529805 374.634035 809 393.544731 817.581462 412.414287 825.259431 425.939069 842.47732M488.719104 826C476.272195 820.334522 480.370122 808.404677 475.08545 801.257379 474.502518 800.466847 476.661977 797.717097 476.773343 797.486097 471.017105 787.287894 465.450537 777.425068 459 766 474.039652 766.795665 473.414957 781.772993 485.134506 787.672893 481.930989 779.805219 479.620141 774.127763 477.307553 768.448595 477.606849 768.032796 477.906146 767.616997 478.203702 767.201198 480.020363 768.720662 482.67749 769.887637 483.519696 771.817767 491.129137 789.264224 498.420141 806.844147 506 824.848424 497.036764 827.421931 496.452092 820.654499 493.88197 816.508484 491.17264 812.136603 488.529434 807.723656 485.856646 803.329531 485.019659 803.71453 484.180933 804.101241 483.342207 804.48624 484.941355 810.882361 486.538763 817.280194 488.719104 826M411.565067 773C413.900521 774.432037 416.992481 775.33503 418.43956 777.385721 425.711394 787.683979 432.54251 798.28898 439.545402 808.775075 445.115095 817.115699 445.125506 817.108806 454.847311 814.722078 456.846154 818.253057 458.919607 821.915004 461 825.589015 448.705032 832.133993 449.022556 831.92203 441.919028 821.375621 431.548294 805.979931 420.665703 790.925449 410 775.726212 410.522267 774.818049 411.044534 773.909886 411.565067 773M412.928411 817C403.660567 808.949776 394.392723 800.901245 384 791.873748 386.874692 790.540794 389.703157 788.586248 390.237346 789.077425 398.996683 797.1141 407.466667 805.460724 416 813.737906 414.976137 814.825271 413.952274 815.912635 412.928411 817M434.75251 840C438.796148 830.940537 432.495595 829.227291 426 827.651733 428.721881 826.206889 431.443762 824.763789 434.768183 823 437.228847 826.102317 439.849723 829.405065 443 833.377076 439.983815 835.797929 437.368162 837.899836 434.75251 840M640.722 109.876C640.63 110.024 640.574 110.234 640.558 110.504 640.042 110.002 639.52 109.5 639 109 639.574 109.292 640.148 109.584 640.722 109.876"/>
    </g>
    <path fill="#1A1919" d="M794.647714,529.131608 L772.751714,529.131608 C772.10771,543.299679 773.986025,555.428225 778.386714,565.517608 C782.787402,575.606992 789.066339,583.871576 797.223714,590.311608 C805.381088,596.751641 815.255656,601.527926 826.847714,604.640608 C838.439772,607.753291 850.997646,609.309608 864.521714,609.309608 C878.045781,609.309608 889.637665,608.075287 899.297714,605.606608 C908.957762,603.137929 917.061347,599.917962 923.608714,595.946608 C930.15608,591.975255 935.308028,587.520966 939.064714,582.583608 C942.821399,577.64625 945.71937,572.762632 947.758714,567.932608 C949.798057,563.102584 951.086044,558.540963 951.622714,554.247608 C952.159383,549.954254 952.427714,546.519621 952.427714,543.943608 C952.427714,534.498228 950.871396,526.448308 947.758714,519.793608 C944.646031,513.138908 940.352741,507.503965 934.878714,502.888608 C929.404686,498.273252 923.072083,494.409291 915.880714,491.296608 C908.689344,488.183926 901.015088,485.554286 892.857714,483.407608 L836.829714,469.561608 C832.107023,468.48827 827.652734,467.09295 823.466714,465.375608 C819.280693,463.658266 815.57773,461.404289 812.357714,458.613608 C809.137697,455.822928 806.615389,452.441962 804.790714,448.470608 C802.966038,444.499255 802.053714,439.830302 802.053714,434.463608 C802.053714,425.876899 803.663697,418.685637 806.883714,412.889608 C810.10373,407.093579 814.343354,402.424626 819.602714,398.882608 C824.862073,395.340591 830.980012,392.764616 837.956714,391.154608 C844.933415,389.5446 852.178343,388.739608 859.691714,388.739608 C867.849088,388.739608 875.630677,389.866597 883.036714,392.120608 C890.442751,394.37462 896.990018,397.70192 902.678714,402.102608 C908.367409,406.503297 912.982696,411.977242 916.524714,418.524608 C920.066731,425.071974 922.052378,432.746231 922.481714,441.547608 L944.377714,441.547608 C944.377714,429.740883 942.07007,419.38332 937.454714,410.474608 C932.839357,401.565897 926.667752,394.106305 918.939714,388.095608 C911.211675,382.084912 902.195765,377.576957 891.891714,374.571608 C881.587662,371.56626 870.747104,370.063608 859.369714,370.063608 C843.269633,370.063608 830.067765,372.371252 819.763714,376.986608 C809.459662,381.601965 801.356076,387.236908 795.452714,393.891608 C789.549351,400.546308 785.524391,407.630237 783.377714,415.143608 C781.231036,422.656979 780.157714,429.204247 780.157714,434.785608 C780.157714,443.801653 781.606699,451.422244 784.504714,457.647608 C787.402728,463.872973 791.213023,469.132254 795.935714,473.425608 C800.658404,477.718963 806.186015,481.153595 812.518714,483.729608 C818.851412,486.305621 825.345014,488.452266 831.999714,490.169608 L883.197714,502.727608 C888.564407,504.015615 894.038352,505.679265 899.619714,507.718608 C905.201075,509.757952 910.299357,512.387592 914.914714,515.607608 C919.53007,518.827624 923.286699,522.798918 926.184714,527.521608 C929.082728,532.244299 930.531714,537.825576 930.531714,544.265608 C930.531714,552.63765 928.492401,559.775245 924.413714,565.678608 C920.335026,571.581971 915.236744,576.411923 909.118714,580.168608 C903.000683,583.925294 896.399749,586.662266 889.315714,588.379608 C882.231678,590.09695 875.68441,590.955608 869.673714,590.955608 C859.154994,590.955608 849.280426,589.935952 840.049714,587.896608 C830.819001,585.857265 822.822747,582.476299 816.060714,577.753608 C809.29868,573.030918 803.985733,566.698315 800.121714,558.755608 C796.257694,550.812902 794.433046,540.938334 794.647714,529.131608 Z M1343.01371,374.893608 L1343.01371,522.047608 C1343.01371,533.854334 1344.67736,545.070555 1348.00471,555.696608 C1351.33206,566.322661 1356.59134,575.606902 1363.78271,583.549608 C1370.97408,591.492315 1380.20466,597.771252 1391.47471,602.386608 C1402.74477,607.001965 1416.3223,609.309608 1432.20771,609.309608 C1448.30779,609.309608 1461.99266,607.001965 1473.26271,602.386608 C1484.53277,597.771252 1493.76334,591.492315 1500.95471,583.549608 C1508.14608,575.606902 1513.40536,566.322661 1516.73271,555.696608 C1520.06006,545.070555 1521.72371,533.854334 1521.72371,522.047608 L1521.72371,374.893608 L1499.82771,374.893608 L1499.82771,517.217608 C1499.82771,530.527008 1498.32506,541.850562 1495.31971,551.188608 C1492.31437,560.526655 1487.91374,568.147245 1482.11771,574.050608 C1476.32168,579.953971 1469.23776,584.247262 1460.86571,586.930608 C1452.49367,589.613955 1442.9411,590.955608 1432.20771,590.955608 C1421.68899,590.955608 1412.24376,589.613955 1403.87171,586.930608 C1395.49967,584.247262 1388.41574,579.953971 1382.61971,574.050608 C1376.82368,568.147245 1372.42306,560.526655 1369.41771,551.188608 C1366.41237,541.850562 1364.90971,530.527008 1364.90971,517.217608 L1364.90971,374.893608 L1343.01371,374.893608 Z M1565.83771,374.893608 L1565.83771,604.801608 L1716.53371,604.801608 L1716.53371,586.125608 L1587.73371,586.125608 L1587.73371,374.893608 L1565.83771,374.893608 Z" transform="rotate(73 1244.581 489.687)"/>
    <text fill="#1A1919" font-family="HelveticaNeue-Bold, Helvetica Neue" font-size="522" font-weight="bold" transform="rotate(-17 979.986 718.576)">
      <tspan x="491.511" y="605.576">afr</tspan> <tspan x="491.511" y="1227.576">o</tspan>
    </text>
    <g transform="translate(1083 254)">
      <circle cx="141.5" cy="141.5" r="141.5" fill="#1A1919"/>
      <circle cx="142" cy="142" r="52" fill="#A2B9B4"/>
      <circle cx="141.5" cy="141.5" r="5.5" fill="#203543"/>
    </g>
    <text fill="#1A1919" font-family="HelveticaNeue-CondensedBlack, Helvetica Neue" font-size="122" font-style="condensed" font-weight="700" transform="rotate(72 1075.217 796.952)">
      <tspan x="896.67" y="842.452">voyage</tspan>
    </text>
    <text fill="#3C3837" font-family="HelveticaNeue-Light, Helvetica Neue" font-size="40" font-weight="300" transform="rotate(-16 931.687 245.464)">
      <tspan x="843.527" y="260.464">don’t stop</tspan>
    </text>
  </g>
</svg>
