<?xml version="1.0" encoding="UTF-8" standalone="no"?>
<svg width="1440px" height="1024px" viewBox="0 0 1440 1024" version="1.1" xmlns="http://www.w3.org/2000/svg" xmlns:xlink="http://www.w3.org/1999/xlink">
    <!-- Generator: Sketch 42 (36781) - http://www.bohemiancoding.com/sketch -->
    <title>Group</title>
    <desc>Created with Sketch.</desc>
    <defs>
        <polygon id="path-1" points="233.816 0.605320448 233.816 182.456179 0.325 182.456179 0.325 0.605320448 233.816 0.605320448"></polygon>
        <polygon id="path-3" points="0.06 212.432 0.06 0.605320448 367.104846 0.605320448 367.104846 212.432 0.06 212.432"></polygon>
    </defs>
    <g id="Welcome" stroke="none" stroke-width="1" fill="none" fill-rule="evenodd">
        <g id="Desktop-HD">
            <g id="Group">
                <rect id="Rectangle" fill="#D03301" x="0" y="0" width="1440" height="1024"></rect>
                <text id="4" opacity="0.196595149" font-family="Poppins-Light, Poppins" font-size="380" font-weight="300" fill="#000000">
                    <tspan x="43" y="718">4</tspan>
                </text>
                <circle id="Oval" stroke="#000000" cx="1063.5" cy="540.5" r="376.5"></circle>
                <circle id="Oval" stroke="#000000" cx="376.5" cy="540.5" r="376.5"></circle>
                <circle id="Oval" stroke="#000000" cx="694.5" cy="540.5" r="376.5"></circle>
                <path d="M182.5,220.5 L570.5,540.5" id="Line" stroke="#000000" stroke-linecap="square"></path>
                <text id="The-vast-majority-of" font-family="Poppins-Light, Poppins" font-size="14" font-weight="300" fill="#000000">
                    <tspan x="1105" y="489">The vast majority of butterflies have a </tspan>
                    <tspan x="1105" y="512">four-stage life cycle; egg, larva </tspan>
                    <tspan x="1105" y="535">(caterpillar), pupa (chrysalis) and imago </tspan>
                    <tspan x="1105" y="558">(adult). In the genera Colias, Erebia, </tspan>
                    <tspan x="1105" y="581">Euchloe, and Parnassius, a small number </tspan>
                    <tspan x="1105" y="604">of species are known that reproduce </tspan>
                    <tspan x="1105" y="627">semi-parthenogenetically; when the </tspan>
                    <tspan x="1105" y="650">female dies, a partially developed larva </tspan>
                    <tspan x="1105" y="673">emerges from her abdomen.</tspan>
                </text>
                <text id="stage-life-cycle" transform="translate(260.000000, 594.500000) rotate(-90.000000) translate(-260.000000, -594.500000) " font-family="Merriweather-Bold, Merriweather" font-size="32" font-weight="bold" fill="#000000">
                    <tspan x="138.5" y="604.5">stage life cycle</tspan>
                </text>
                <g id="butterfly-red" transform="translate(482.000000, 402.000000)">
                    <g id="Group-3" transform="translate(243.000000, 0.000000)">
                        <mask id="mask-2" fill="white">
                            <use xlink:href="#path-1"></use>
                        </mask>
                        <g id="Clip-2"></g>
                        <path d="M9.325,133.245 C9.325,133.245 53.937,50.182 94.865,35.114 C128.284,21.93 198.131,1.197 209.963,0.621 C221.794,0.044 246.415,15.42 225.971,42.113 C201.963,73.691 196.143,75.951 191.084,87.601 C186.026,99.253 188.877,131.272 165.989,156.183 C153.608,170.47 149.966,189.349 93.704,179.922 C43.265,169.835 3.659,165.751 3.659,165.751 L0.325,148.281 L9.325,133.245" id="Fill-1" fill="#0B0B09" mask="url(#mask-2)"></path>
                    </g>
                    <path d="M253.465,147.332 C253.465,147.332 309.732,72.52 338.833,61.219 C353.288,55.193 391.214,42.476 406.635,60.961 C404.483,68.287 389.381,84.456 391.643,93.468 C399.271,112.712 383.061,146.723 360.533,157.171 C335.372,163.491 269.256,159.335 253.465,147.332" id="Fill-4" fill="#DC3A2A"></path>
                    <path d="M386.486,23.997 L403.601,22.34 L401.237,43.172 C401.237,43.172 383.47,41.703 386.486,23.997" id="Fill-5" fill="#DC3A2A"></path>
                    <path d="M416.544,17.752 C416.544,17.752 411.663,20.574 416.951,47.989 C422.768,42.537 445.853,26.359 429.504,18.488 C417.664,12.678 416.544,17.752 416.544,17.752" id="Fill-6" fill="#DC3A2A"></path>
                    <path d="M458.592,28.346 C461.124,29.512 464.125,28.404 465.291,25.869 C466.458,23.337 465.349,20.336 462.815,19.17 L455.36,15.738 C452.827,14.574 449.826,15.682 448.661,18.215 C447.494,20.751 448.602,23.749 451.139,24.915 L458.592,28.346" id="Fill-7" fill="#DC3A2A"></path>
                    <path d="M451.175,36.997 C453.511,37.804 454.754,40.356 453.946,42.691 C453.139,45.029 450.588,46.271 448.249,45.463 L441.369,43.087 C439.033,42.28 437.791,39.728 438.598,37.391 C439.405,35.053 441.958,33.813 444.295,34.62 L451.175,36.997" id="Fill-8" fill="#DC3A2A"></path>
                    <path d="M439.511,61.588 C441.507,62.387 443.776,61.416 444.572,59.418 C445.371,57.419 444.399,55.153 442.4,54.352 L436.522,52.005 C434.526,51.206 432.258,52.179 431.461,54.173 C430.663,56.175 431.635,58.442 433.634,59.239 L439.511,61.588" id="Fill-9" fill="#DC3A2A"></path>
                    <path d="M430.577,70.813 C432.449,71.753 433.203,74.036 432.265,75.907 C431.322,77.781 429.041,78.537 427.169,77.594 L421.657,74.826 C419.785,73.883 419.032,71.602 419.973,69.73 C420.913,67.856 423.194,67.1 425.069,68.044 L430.577,70.813" id="Fill-10" fill="#DC3A2A"></path>
                    <path d="M422.734,87.352 C424.318,88.405 424.737,90.585 423.666,92.213 C422.595,93.846 420.441,94.315 418.854,93.263 L414.189,90.159 C412.602,89.106 412.186,86.926 413.257,85.296 C414.329,83.663 416.481,83.194 418.067,84.248 L422.734,87.352" id="Fill-11" fill="#DC3A2A"></path>
                    <path d="M419.124,103.253 C420.524,104.211 420.883,106.125 419.926,107.526 C418.969,108.926 417.057,109.286 415.653,108.327 L411.528,105.509 C410.126,104.55 409.769,102.637 410.727,101.235 C411.685,99.833 413.599,99.473 414.999,100.433 L419.124,103.253" id="Fill-12" fill="#DC3A2A"></path>
                    <path d="M414.113,117.768 C415.253,118.854 415.296,120.663 414.21,121.803 C413.121,122.944 411.315,122.988 410.175,121.899 L406.817,118.697 C405.675,117.609 405.634,115.802 406.722,114.662 C407.81,113.521 409.617,113.477 410.759,114.565 L414.113,117.768" id="Fill-13" fill="#DC3A2A"></path>
                    <path d="M409.001,128.386 C410.141,129.472 410.183,131.279 409.095,132.421 C408.009,133.562 406.203,133.604 405.059,132.515 L401.703,129.315 C400.562,128.226 400.52,126.419 401.606,125.279 C402.697,124.139 404.503,124.095 405.643,125.182 L409.001,128.386" id="Fill-14" fill="#DC3A2A"></path>
                    <path d="M403.058,142.101 C404.141,143.134 404.182,144.851 403.149,145.935 C402.116,147.02 400.398,147.06 399.315,146.025 L396.125,142.984 C395.042,141.95 395.001,140.235 396.035,139.149 C397.07,138.066 398.785,138.025 399.871,139.058 L403.058,142.101" id="Fill-15" fill="#DC3A2A"></path>
                    <path d="M394.431,153.85 C395.513,154.882 395.555,156.598 394.52,157.683 C393.488,158.766 391.77,158.808 390.687,157.774 L387.498,154.73 C386.415,153.699 386.374,151.981 387.409,150.898 C388.443,149.814 390.159,149.773 391.244,150.806 L394.431,153.85" id="Fill-16" fill="#DC3A2A"></path>
                    <path d="M253.464,148.082 C253.122,148.082 252.814,147.847 252.734,147.5 C252.641,147.096 252.893,146.694 253.296,146.601 C253.872,146.468 310.998,133.195 324.577,120.414 C329.801,115.496 339.939,103.631 350.673,91.071 C373.569,64.277 388.879,46.765 392.917,47.551 C393.324,47.629 393.59,48.023 393.512,48.429 C393.433,48.836 393.036,49.1 392.633,49.023 C391.974,48.899 389.212,49.939 377.763,62.343 C370.102,70.643 360.805,81.523 351.813,92.045 C341.053,104.638 330.889,116.533 325.605,121.505 C311.732,134.564 255.999,147.517 253.633,148.063 C253.577,148.076 253.52,148.082 253.464,148.082" id="Fill-17" fill="#0A0A08"></path>
                    <path d="M378.959,139.891 C363.042,139.891 327.556,122.592 325.847,121.754 C325.475,121.572 325.321,121.123 325.504,120.751 C325.686,120.378 326.137,120.225 326.507,120.407 C326.978,120.638 373.661,143.405 383.614,137.473 C383.968,137.261 384.43,137.378 384.642,137.733 C384.854,138.089 384.738,138.549 384.382,138.761 C383.065,139.546 381.206,139.891 378.959,139.891" id="Fill-18" fill="#0A0A08"></path>
                    <g id="Group-22" transform="translate(239.000000, 93.000000)" fill="#0A0A08">
                        <path d="M141.948,7.907 C128.286,7.907 111.222,2.125 110.234,1.786 C109.843,1.651 109.634,1.225 109.768,0.833 C109.903,0.441 110.328,0.232 110.721,0.367 C111.049,0.48 143.597,11.511 154.225,3.476 C154.555,3.226 155.026,3.291 155.276,3.622 C155.526,3.952 155.46,4.422 155.13,4.672 C151.993,7.044 147.223,7.907 141.948,7.907" id="Fill-19"></path>
                        <path d="M0.315,80.688 C0.315,80.688 26.701,133.11 29.655,159.668 C32.728,186.749 29.9,227.33 76.896,226.998 C103.083,222.482 155.018,208.047 163.453,128.153 C166.072,103.037 130.308,94.943 122.775,94.001 C74.453,87.968 -1.405,59.348 0.315,80.688" id="Fill-21"></path>
                    </g>
                    <path d="M296.428,296.022 C297.756,298.593 296.743,301.755 294.171,303.082 C291.598,304.407 288.435,303.397 287.108,300.822 L283.206,293.25 C281.882,290.677 282.891,287.514 285.466,286.188 C288.039,284.861 291.202,285.873 292.527,288.447 L296.428,296.022" id="Fill-23" fill="#DC3A2A"></path>
                    <path d="M303.324,299.157 C304.269,301.545 306.973,302.714 309.36,301.769 C311.747,300.824 312.916,298.121 311.971,295.733 L309.188,288.711 C308.243,286.324 305.54,285.153 303.155,286.098 C300.768,287.044 299.598,289.745 300.545,292.131 L303.324,299.157" id="Fill-24" fill="#DC3A2A"></path>
                    <path d="M328.424,290.206 C329.346,292.239 328.442,294.636 326.408,295.556 C324.372,296.477 321.974,295.572 321.056,293.535 L318.349,287.551 C317.43,285.516 318.333,283.12 320.366,282.2 C322.403,281.281 324.799,282.184 325.718,284.22 L328.424,290.206" id="Fill-25" fill="#DC3A2A"></path>
                    <path d="M338.056,284.336 C338.9,286.34 341.211,287.28 343.214,286.436 C345.224,285.59 346.162,283.279 345.314,281.273 L342.825,275.377 C341.982,273.371 339.671,272.432 337.667,273.275 C335.66,274.122 334.719,276.432 335.568,278.437 L338.056,284.336" id="Fill-26" fill="#DC3A2A"></path>
                    <path d="M354.182,276.753 C355.37,278.392 357.668,278.755 359.308,277.565 C360.949,276.373 361.312,274.078 360.121,272.437 L356.619,267.611 C355.425,265.968 353.129,265.607 351.49,266.798 C349.848,267.989 349.484,270.284 350.677,271.924 L354.182,276.753" id="Fill-27" fill="#DC3A2A"></path>
                    <path d="M364.695,266.353 C365.752,267.762 367.752,268.046 369.16,266.988 C370.572,265.929 370.857,263.93 369.798,262.52 L366.686,258.373 C365.627,256.963 363.624,256.68 362.215,257.737 C360.807,258.796 360.521,260.795 361.581,262.205 L364.695,266.353" id="Fill-28" fill="#DC3A2A"></path>
                    <path d="M373.064,255.329 C374.244,256.461 376.12,256.421 377.254,255.242 C378.387,254.062 378.347,252.187 377.167,251.052 L373.692,247.719 C372.513,246.586 370.634,246.627 369.502,247.805 C368.369,248.989 368.409,250.863 369.59,251.996 L373.064,255.329" id="Fill-29" fill="#DC3A2A"></path>
                    <path d="M378.925,244.046 C380.103,245.18 381.983,245.14 383.115,243.96 C384.247,242.779 384.208,240.903 383.027,239.769 L379.551,236.436 C378.373,235.304 376.495,235.343 375.361,236.523 C374.23,237.706 374.268,239.582 375.447,240.714 L378.925,244.046" id="Fill-30" fill="#DC3A2A"></path>
                    <path d="M383.348,231.819 C384.47,232.896 386.251,232.858 387.329,231.738 C388.404,230.616 388.367,228.834 387.247,227.755 L383.945,224.588 C382.824,223.512 381.039,223.549 379.965,224.671 C378.886,225.796 378.925,227.575 380.047,228.653 L383.348,231.819" id="Fill-31" fill="#DC3A2A"></path>
                    <path d="M386.178,217.526 C387.298,218.603 389.079,218.564 390.156,217.444 C391.232,216.32 391.196,214.541 390.074,213.464 L386.773,210.295 C385.651,209.219 383.868,209.257 382.792,210.378 C381.714,211.503 381.753,213.282 382.874,214.36 L386.178,217.526" id="Fill-32" fill="#DC3A2A"></path>
                    <path d="M358.627,194.624 C368.422,198.638 368.103,224.522 356.768,240.679 C317.765,298.716 282.857,270.117 279.586,260.522 C277.851,255.436 274.311,240.273 266.81,221.306 C261.333,207.456 249.865,189.814 245.084,177.374 C243.327,173.069 245.511,169.939 249.183,170.086 C261.206,170.572 288.037,179.393 311.204,183.291 C337.021,187.635 354.276,192.842 358.627,194.624" id="Fill-33" fill="#DC3A2A"></path>
                    <path d="M323.868,219.487 C299.472,219.487 250.371,172.41 248.269,170.382 C247.971,170.095 247.963,169.621 248.25,169.322 C248.538,169.023 249.013,169.015 249.31,169.303 C249.821,169.795 300.073,217.987 323.859,217.987 C324.129,217.987 324.393,217.981 324.657,217.969 C327.91,217.814 330.481,216.659 332.299,214.538 C332.313,214.521 332.329,214.504 332.345,214.488 C343.613,203.528 330.941,187.836 330.354,187.14 C330.281,187.074 330.221,186.992 330.177,186.897 C330.019,186.55 330.145,186.138 330.472,185.941 C331.066,185.584 331.402,186.018 331.958,186.74 C334.181,189.62 344.688,204.538 333.415,215.54 C331.32,217.971 328.397,219.292 324.727,219.467 C324.445,219.481 324.157,219.487 323.868,219.487" id="Fill-34" fill="#0A0A08"></path>
                    <path d="M298.088,276.129 C298.061,276.129 298.034,276.128 298.007,276.125 C297.596,276.081 297.297,275.711 297.341,275.299 C299.881,251.491 242.553,174.752 241.974,173.979 C241.725,173.648 241.792,173.178 242.123,172.929 C242.456,172.681 242.925,172.748 243.174,173.08 C245.554,176.253 301.435,251.067 298.832,275.459 C298.791,275.843 298.466,276.129 298.088,276.129" id="Fill-35" fill="#0A0A08"></path>
                    <path d="M314.068,277.422 C314.037,277.422 314.006,277.42 313.975,277.416 C313.564,277.365 313.272,276.991 313.323,276.58 C316.098,254.203 245.22,172.539 244.504,171.717 C244.232,171.404 244.264,170.931 244.577,170.659 C244.889,170.386 245.363,170.419 245.635,170.732 C248.578,174.11 317.668,253.728 314.811,276.764 C314.765,277.144 314.441,277.422 314.068,277.422" id="Fill-36" fill="#0A0A08"></path>
                    <path d="M335.036,267.681 C334.757,267.681 334.49,267.525 334.36,267.257 C334.25,267.028 334.091,266.598 333.828,265.885 C323.987,239.194 306.339,219.033 293.267,206.821 C292.965,206.538 292.948,206.064 293.231,205.761 C293.514,205.459 293.988,205.442 294.291,205.725 C307.482,218.048 325.293,238.399 335.236,265.367 C335.457,265.967 335.632,266.441 335.711,266.604 C335.891,266.977 335.735,267.425 335.362,267.606 C335.257,267.657 335.145,267.681 335.036,267.681" id="Fill-37" fill="#0A0A08"></path>
                    <path d="M351.882,249.047 C351.542,249.047 351.234,248.814 351.153,248.469 C349.396,241 320.903,219.879 320.616,219.666 C320.283,219.42 320.212,218.951 320.458,218.617 C320.704,218.285 321.173,218.213 321.507,218.46 C322.7,219.341 350.731,240.126 352.613,248.125 C352.707,248.528 352.457,248.932 352.055,249.027 C351.996,249.041 351.939,249.047 351.882,249.047" id="Fill-38" fill="#0A0A08"></path>
                    <path d="M364.084,229.992 C363.966,229.992 363.847,229.964 363.736,229.906 L334.183,214.382 C333.817,214.189 333.676,213.736 333.868,213.369 C334.061,213.003 334.514,212.86 334.881,213.054 L364.433,228.578 C364.8,228.771 364.941,229.224 364.748,229.59 C364.614,229.846 364.353,229.992 364.084,229.992" id="Fill-39" fill="#0A0A08"></path>
                    <g id="Group-43">
                        <mask id="mask-4" fill="white">
                            <use xlink:href="#path-3"></use>
                        </mask>
                        <g id="Clip-41"></g>
                        <path d="M366.354,212.432 C366.263,212.432 366.171,212.416 366.081,212.38 L337.58,201.227 C337.194,201.076 337.004,200.641 337.155,200.255 C337.306,199.869 337.743,199.68 338.127,199.831 L366.628,210.984 C367.014,211.135 367.204,211.57 367.053,211.956 C366.937,212.252 366.654,212.432 366.354,212.432" id="Fill-40" fill="#0A0A08" mask="url(#mask-4)"></path>
                        <path d="M224.492,133.245 C224.492,133.245 179.879,50.182 138.951,35.114 C105.532,21.93 35.685,1.197 23.853,0.621 C12.022,0.044 -12.598,15.42 7.845,42.113 C31.853,73.691 37.673,75.951 42.732,87.601 C47.79,99.253 44.939,131.272 67.827,156.183 C80.209,170.47 83.851,189.349 140.113,179.922 C190.551,169.835 231.409,165.501 231.409,165.501 L233.491,148.281 L224.492,133.245" id="Fill-42" fill="#0B0B09" mask="url(#mask-4)"></path>
                    </g>
                    <path d="M223.351,147.332 C223.351,147.332 167.083,72.52 137.983,61.219 C123.528,55.193 85.602,42.476 70.18,60.961 C72.333,68.287 87.435,84.456 85.173,93.468 C77.545,112.712 93.755,146.723 116.283,157.171 C141.443,163.491 207.56,159.335 223.351,147.332" id="Fill-44" fill="#DC3A2A"></path>
                    <path d="M90.33,23.997 L73.215,22.34 L75.579,43.172 C75.579,43.172 93.346,41.703 90.33,23.997" id="Fill-45" fill="#DC3A2A"></path>
                    <path d="M60.272,17.752 C60.272,17.752 65.153,20.574 59.866,47.989 C54.049,42.537 30.963,26.359 47.312,18.488 C59.152,12.678 60.272,17.752 60.272,17.752" id="Fill-46" fill="#DC3A2A"></path>
                    <path d="M18.224,28.346 C15.691,29.512 12.691,28.404 11.525,25.869 C10.359,23.337 11.468,20.336 14.001,19.17 L21.456,15.738 C23.989,14.574 26.99,15.682 28.155,18.215 C29.322,20.751 28.214,23.749 25.677,24.915 L18.224,28.346" id="Fill-47" fill="#DC3A2A"></path>
                    <path d="M25.64,36.997 C23.306,37.804 22.062,40.356 22.87,42.691 C23.678,45.029 26.227,46.271 28.568,45.463 L35.446,43.087 C37.783,42.28 39.025,39.728 38.219,37.391 C37.411,35.053 34.858,33.813 32.521,34.62 L25.64,36.997" id="Fill-48" fill="#DC3A2A"></path>
                    <path d="M37.305,61.588 C35.308,62.387 33.04,61.416 32.244,59.418 C31.444,57.419 32.417,55.153 34.416,54.352 L40.294,52.005 C42.291,51.206 44.557,52.179 45.354,54.173 C46.153,56.175 45.181,58.442 43.183,59.239 L37.305,61.588" id="Fill-49" fill="#DC3A2A"></path>
                    <path d="M46.24,70.813 C44.367,71.753 43.612,74.036 44.552,75.907 C45.494,77.781 47.775,78.537 49.647,77.594 L55.159,74.826 C57.031,73.883 57.785,71.602 56.844,69.73 C55.903,67.856 53.622,67.1 51.746,68.044 L46.24,70.813" id="Fill-50" fill="#DC3A2A"></path>
                    <path d="M54.082,87.352 C52.498,88.405 52.079,90.585 53.15,92.213 C54.221,93.846 56.375,94.315 57.961,93.263 L62.628,90.159 C64.214,89.106 64.63,86.926 63.559,85.296 C62.487,83.663 60.334,83.194 58.749,84.248 L54.082,87.352" id="Fill-51" fill="#DC3A2A"></path>
                    <path d="M57.692,103.253 C56.292,104.211 55.933,106.125 56.89,107.526 C57.848,108.926 59.76,109.286 61.163,108.327 L65.288,105.509 C66.69,104.55 67.047,102.637 66.089,101.235 C65.131,99.833 63.217,99.473 61.816,100.433 L57.692,103.253" id="Fill-52" fill="#DC3A2A"></path>
                    <path d="M62.703,117.768 C61.562,118.854 61.52,120.663 62.606,121.803 C63.695,122.944 65.501,122.988 66.641,121.899 L69.999,118.697 C71.141,117.609 71.182,115.802 70.095,114.662 C69.006,113.521 67.2,113.477 66.057,114.565 L62.703,117.768" id="Fill-53" fill="#DC3A2A"></path>
                    <path d="M67.815,128.386 C66.675,129.472 66.633,131.279 67.721,132.421 C68.807,133.562 70.613,133.604 71.757,132.515 L75.113,129.315 C76.254,128.226 76.296,126.419 75.21,125.279 C74.119,124.139 72.313,124.095 71.173,125.182 L67.815,128.386" id="Fill-54" fill="#DC3A2A"></path>
                    <path d="M73.758,142.101 C72.675,143.134 72.634,144.851 73.667,145.935 C74.7,147.02 76.418,147.06 77.502,146.025 L80.691,142.984 C81.774,141.95 81.815,140.235 80.782,139.149 C79.746,138.066 78.031,138.025 76.945,139.058 L73.758,142.101" id="Fill-55" fill="#DC3A2A"></path>
                    <path d="M82.385,153.85 C81.303,154.882 81.262,156.598 82.296,157.683 C83.327,158.766 85.046,158.808 86.129,157.774 L89.318,154.73 C90.401,153.699 90.442,151.981 89.407,150.898 C88.373,149.814 86.658,149.773 85.572,150.806 L82.385,153.85" id="Fill-56" fill="#DC3A2A"></path>
                    <path d="M223.351,148.082 C223.296,148.082 223.239,148.076 223.182,148.063 C220.817,147.517 165.085,134.564 151.212,121.505 C145.927,116.532 135.762,104.635 124.999,92.041 C116.009,81.52 106.712,70.64 99.052,62.341 C87.605,49.94 84.844,48.901 84.183,49.023 C83.776,49.101 83.384,48.836 83.305,48.429 C83.226,48.023 83.492,47.629 83.899,47.551 C87.937,46.756 103.246,64.275 126.14,91.066 C136.875,103.629 147.015,115.496 152.24,120.414 C165.818,133.195 222.944,146.468 223.519,146.601 C223.923,146.694 224.175,147.096 224.082,147.5 C224.002,147.847 223.693,148.082 223.351,148.082" id="Fill-57" fill="#0A0A08"></path>
                    <path d="M97.857,139.891 C95.608,139.891 93.752,139.546 92.434,138.761 C92.078,138.549 91.962,138.089 92.174,137.733 C92.386,137.378 92.846,137.261 93.202,137.473 C103.153,143.404 149.839,120.638 150.309,120.407 C150.682,120.224 151.131,120.378 151.313,120.751 C151.495,121.123 151.342,121.572 150.97,121.754 C149.261,122.592 113.776,139.891 97.857,139.891" id="Fill-58" fill="#0A0A08"></path>
                    <g id="Group-62" transform="translate(74.000000, 93.000000)" fill="#0A0A08">
                        <path d="M21.868,7.907 C16.592,7.907 11.824,7.044 8.686,4.672 C8.356,4.422 8.29,3.952 8.54,3.622 C8.79,3.291 9.261,3.226 9.591,3.476 C20.222,11.511 52.766,0.48 53.095,0.367 C53.486,0.232 53.913,0.441 54.047,0.833 C54.182,1.225 53.973,1.651 53.581,1.786 C52.595,2.125 35.529,7.907 21.868,7.907" id="Fill-59"></path>
                        <path d="M163.501,80.688 C163.501,80.688 137.115,133.11 134.161,159.668 C131.088,186.749 133.916,227.33 86.92,226.998 C60.732,222.482 8.798,208.047 0.363,128.153 C-2.255,103.037 33.508,94.943 41.042,94.001 C89.363,87.968 165.222,59.348 163.501,80.688" id="Fill-61"></path>
                    </g>
                    <path d="M180.389,296.022 C179.061,298.593 180.074,301.755 182.645,303.082 C185.218,304.407 188.381,303.397 189.709,300.822 L193.609,293.25 C194.934,290.677 193.926,287.514 191.349,286.188 C188.777,284.861 185.614,285.873 184.289,288.447 L180.389,296.022" id="Fill-63" fill="#DC3A2A"></path>
                    <path d="M173.492,299.157 C172.547,301.545 169.844,302.714 167.457,301.769 C165.069,300.824 163.899,298.121 164.845,295.733 L167.628,288.711 C168.573,286.324 171.276,285.153 173.661,286.098 C176.048,287.044 177.219,289.745 176.271,292.131 L173.492,299.157" id="Fill-64" fill="#DC3A2A"></path>
                    <path d="M148.392,290.206 C147.471,292.239 148.374,294.636 150.408,295.556 C152.444,296.477 154.843,295.572 155.761,293.535 L158.467,287.551 C159.386,285.516 158.483,283.12 156.451,282.2 C154.413,281.281 152.017,282.184 151.098,284.22 L148.392,290.206" id="Fill-65" fill="#DC3A2A"></path>
                    <path d="M138.761,284.336 C137.916,286.34 135.605,287.28 133.603,286.436 C131.593,285.59 130.653,283.279 131.502,281.273 L133.992,275.377 C134.834,273.371 137.145,272.432 139.149,273.275 C141.156,274.122 142.097,276.432 141.248,278.437 L138.761,284.336" id="Fill-66" fill="#DC3A2A"></path>
                    <path d="M122.634,276.753 C121.445,278.392 119.148,278.755 117.508,277.565 C115.867,276.373 115.504,274.078 116.695,272.437 L120.197,267.611 C121.391,265.968 123.687,265.607 125.326,266.798 C126.969,267.989 127.332,270.284 126.14,271.924 L122.634,276.753" id="Fill-67" fill="#DC3A2A"></path>
                    <path d="M112.121,266.353 C111.063,267.762 109.064,268.046 107.656,266.988 C106.245,265.929 105.959,263.93 107.017,262.52 L110.131,258.373 C111.189,256.963 113.192,256.68 114.601,257.737 C116.01,258.796 116.295,260.795 115.235,262.205 L112.121,266.353" id="Fill-68" fill="#DC3A2A"></path>
                    <path d="M103.752,255.329 C102.572,256.461 100.695,256.421 99.562,255.242 C98.43,254.062 98.469,252.187 99.649,251.052 L103.124,247.719 C104.303,246.586 106.182,246.627 107.314,247.805 C108.447,248.989 108.408,250.863 107.226,251.996 L103.752,255.329" id="Fill-69" fill="#DC3A2A"></path>
                    <path d="M97.891,244.046 C96.713,245.18 94.833,245.14 93.702,243.96 C92.569,242.779 92.608,240.903 93.789,239.769 L97.265,236.436 C98.443,235.304 100.32,235.343 101.455,236.523 C102.586,237.706 102.548,239.582 101.368,240.714 L97.891,244.046" id="Fill-70" fill="#DC3A2A"></path>
                    <path d="M93.469,231.819 C92.347,232.896 90.564,232.858 89.486,231.738 C88.412,230.616 88.449,228.834 89.569,227.755 L92.871,224.588 C93.992,223.512 95.777,223.549 96.85,224.671 C97.93,225.796 97.891,227.575 96.769,228.653 L93.469,231.819" id="Fill-71" fill="#DC3A2A"></path>
                    <path d="M90.639,217.526 C89.518,218.603 87.736,218.564 86.659,217.444 C85.584,216.32 85.62,214.541 86.743,213.464 L90.043,210.295 C91.165,209.219 92.948,209.257 94.024,210.378 C95.102,211.503 95.063,213.282 93.942,214.36 L90.639,217.526" id="Fill-72" fill="#DC3A2A"></path>
                    <path d="M118.189,194.624 C108.394,198.638 108.713,224.522 120.048,240.679 C159.051,298.716 193.959,270.117 197.23,260.522 C198.965,255.436 202.505,240.273 210.007,221.306 C215.483,207.456 226.951,189.814 231.732,177.374 C233.49,173.069 231.306,169.939 227.633,170.086 C215.61,170.572 188.778,179.393 165.611,183.291 C139.795,187.635 122.54,192.842 118.189,194.624" id="Fill-73" fill="#DC3A2A"></path>
                    <path d="M152.949,219.487 C152.658,219.487 152.372,219.481 152.089,219.467 C148.419,219.292 145.496,217.971 143.401,215.54 C132.128,204.537 142.636,189.62 144.858,186.739 C145.414,186.018 145.75,185.584 146.345,185.941 C146.671,186.138 146.797,186.55 146.639,186.897 C146.596,186.992 146.535,187.074 146.462,187.14 C145.876,187.834 133.203,203.527 144.471,214.488 C144.487,214.504 144.503,214.521 144.517,214.538 C146.335,216.66 148.906,217.814 152.16,217.969 C175.588,219.069 226.989,169.801 227.506,169.303 C227.804,169.016 228.279,169.024 228.566,169.322 C228.853,169.621 228.845,170.095 228.547,170.382 C226.445,172.41 177.346,219.487 152.949,219.487" id="Fill-74" fill="#0A0A08"></path>
                    <path d="M178.728,276.129 C178.35,276.129 178.025,275.843 177.984,275.459 C175.381,251.067 231.263,176.253 233.642,173.08 C233.891,172.748 234.362,172.681 234.692,172.929 C235.024,173.178 235.091,173.648 234.843,173.979 C234.263,174.752 176.934,251.491 179.475,275.299 C179.519,275.711 179.221,276.081 178.809,276.125 C178.782,276.128 178.755,276.129 178.728,276.129" id="Fill-75" fill="#0A0A08"></path>
                    <path d="M162.747,277.422 C162.374,277.422 162.051,277.144 162.004,276.764 C159.148,253.728 228.239,174.11 231.182,170.732 C231.453,170.419 231.928,170.387 232.24,170.659 C232.552,170.931 232.585,171.404 232.312,171.717 C231.597,172.539 160.718,254.203 163.493,276.58 C163.544,276.991 163.252,277.365 162.841,277.416 C162.809,277.42 162.778,277.422 162.747,277.422" id="Fill-76" fill="#0A0A08"></path>
                    <path d="M141.78,267.681 C141.671,267.681 141.559,267.657 141.454,267.606 C141.081,267.425 140.925,266.977 141.105,266.604 C141.184,266.441 141.359,265.967 141.58,265.367 C151.523,238.399 169.334,218.048 182.525,205.725 C182.828,205.442 183.303,205.459 183.585,205.761 C183.868,206.064 183.851,206.538 183.549,206.821 C170.476,219.033 152.828,239.194 142.988,265.885 C142.725,266.598 142.566,267.028 142.456,267.257 C142.326,267.525 142.058,267.681 141.78,267.681" id="Fill-77" fill="#0A0A08"></path>
                    <path d="M124.934,249.047 C124.877,249.047 124.819,249.041 124.762,249.027 C124.358,248.932 124.108,248.528 124.203,248.125 C126.085,240.126 154.117,219.341 155.309,218.46 C155.641,218.213 156.111,218.284 156.358,218.617 C156.604,218.951 156.533,219.42 156.2,219.666 C146.253,227.016 127.069,242.493 125.663,248.469 C125.582,248.814 125.274,249.047 124.934,249.047" id="Fill-78" fill="#0A0A08"></path>
                    <path d="M112.732,229.992 C112.463,229.992 112.202,229.846 112.068,229.59 C111.875,229.224 112.016,228.771 112.383,228.578 L141.936,213.054 C142.303,212.861 142.756,213.003 142.949,213.369 C143.141,213.736 143,214.189 142.634,214.382 L113.081,229.906 C112.97,229.964 112.85,229.992 112.732,229.992" id="Fill-79" fill="#0A0A08"></path>
                    <path d="M110.462,212.432 C110.162,212.432 109.879,212.252 109.763,211.956 C109.612,211.57 109.803,211.135 110.188,210.984 L138.69,199.831 C139.076,199.68 139.511,199.87 139.662,200.255 C139.812,200.641 139.622,201.076 139.236,201.227 L110.735,212.38 C110.645,212.416 110.553,212.432 110.462,212.432" id="Fill-80" fill="#0A0A08"></path>
                    <path d="M225.282,101.924 C226.912,109.667 234.508,114.624 242.251,112.996 C249.992,111.367 254.949,103.768 253.321,96.026 C251.692,88.284 244.096,83.327 236.353,84.956 C228.61,86.584 223.654,94.182 225.282,101.924" id="Fill-81" fill="#0D0D0B"></path>
                    <path d="M184.892,24.399 C189.298,27.928 194.64,28.581 196.823,25.858 C199.006,23.132 197.204,18.063 192.799,14.531 C188.394,11.001 183.048,10.347 180.867,13.072 C178.683,15.796 180.487,20.867 184.892,24.399" id="Fill-82" fill="#0A0A08"></path>
                    <path d="M291.432,26.615 C286.387,29.147 281.026,28.671 279.458,25.553 C277.892,22.431 280.713,17.849 285.757,15.314 C290.802,12.781 296.167,13.257 297.731,16.378 C299.298,19.497 296.476,24.08 291.432,26.615" id="Fill-83" fill="#0A0A08"></path>
                    <path d="M241.348,90.461 C241.254,90.461 241.158,90.444 241.065,90.406 C240.681,90.249 240.497,89.811 240.654,89.427 C254.627,55.257 274.337,14.447 288.885,14.075 L288.905,14.075 C289.31,14.075 289.643,14.398 289.654,14.805 C289.664,15.219 289.337,15.564 288.923,15.574 C278.204,15.848 261.555,42.278 242.043,89.996 C241.924,90.286 241.644,90.461 241.348,90.461" id="Fill-84" fill="#0A0A08"></path>
                    <path d="M239.443,90.991 C239.129,90.991 238.836,90.793 238.731,90.478 C238.539,89.904 219.225,32.846 190.598,14.809 C190.247,14.588 190.142,14.125 190.363,13.774 C190.584,13.424 191.047,13.318 191.397,13.54 C206.622,23.132 219.072,43.428 226.836,58.766 C235.226,75.341 240.106,89.858 240.154,90.003 C240.286,90.396 240.073,90.821 239.68,90.952 C239.601,90.979 239.521,90.991 239.443,90.991" id="Fill-85" fill="#0A0A08"></path>
                    <path d="M235.312,110.103 C235.312,110.103 217.563,112.253 228.203,159.079 C225.966,178.54 215.993,198.839 227.792,239.882 C229.545,248.217 242.046,260.625 247.694,240.443 C252.882,219.964 260.523,194.221 246.811,159.123 C250.88,140.855 258.685,108.351 235.312,110.103" id="Fill-86" fill="#0B0B09"></path>
                </g>
            </g>
        </g>
    </g>
</svg>