<?xml version="1.0" encoding="UTF-8" standalone="no"?>
<svg width="1440px" height="1024px" viewBox="0 0 1440 1024" version="1.1" xmlns="http://www.w3.org/2000/svg" xmlns:xlink="http://www.w3.org/1999/xlink" style="background: #A83311;">
    <!-- Generator: Sketch 42 (36781) - http://www.bohemiancoding.com/sketch -->
    <title>Desktop HD</title>
    <desc>Created with Sketch.</desc>
    <defs></defs>
    <g id="Welcome" stroke="none" stroke-width="1" fill="none" fill-rule="evenodd">
        <g id="Desktop-HD" fill="#020302">
            <g id="Page-1" transform="translate(61.000000, 164.000000)">
                <g id="Group-13" transform="translate(86.000000, 164.000000)">
                    <path d="M57.1065606,294.632849 C56.8355368,291.40746 55.1238072,288.989437 51.9713718,287.378781 C48.8168986,285.766087 46.1637177,284.155431 44.0179423,282.542736 C28.5777336,272.067357 17.6695328,259.273856 11.2953777,244.162235 C4.91714712,229.052652 1.32659046,213.03784 0.52166998,196.113721 C-1.09020875,157.833121 9.24741551,128.690444 31.532505,108.675497 C39.4512922,101.558029 48.5805169,95.7494738 58.9201789,91.2477927 C69.2537276,86.7501892 79.8623757,83.0884956 90.7359344,80.2667897 C93.6866302,79.7326228 96.1727137,81.4105592 98.1860338,85.3046765 L121.746769,132.851645 C123.625596,136.74984 123.156909,138.963982 120.33663,139.500187 C110.400447,140.98036 101.338469,144.470794 93.1506958,149.975567 C89.391004,152.393589 86.3058151,151.186617 83.8890159,146.350572 L62.9468191,102.832282 C61.6039264,100.012615 59.1871272,99.6089314 55.6964215,101.623271 C46.8361829,106.86096 41.197664,119.352718 38.7829026,139.096504 C36.3661034,158.84029 36.9,176.973421 40.3927435,193.493856 C46.7016899,224.520389 57.642495,244.398736 73.2171968,253.128899 C88.7878231,261.8611 104.358449,263.202633 119.935189,257.157577 C121.946471,256.219727 123.489066,256.352249 124.56501,257.56126 C125.638917,259.308516 125.300646,260.582769 123.55835,261.388097 C112.684791,266.896948 102.314563,272.538321 92.447664,278.312216 C82.5787276,284.08815 73.7510934,290.131168 65.9667992,296.445347 C64.7583996,297.250675 62.9773857,297.517758 60.6298708,297.250675 C58.2803181,296.979513 57.1065606,296.108944 57.1065606,294.632849" id="Fill-1"></path>
                    <path d="M244.58171,141.716572 C236.257406,139.433111 226.525,132.98641 215.382455,122.37443 C210.012922,115.927729 205.717296,115.324243 202.495577,120.561933 C188.263767,141.785891 182.692495,165.221953 185.781759,190.874196 C190.075348,227.54414 202.964264,250.174874 224.444433,258.770475 C224.576889,258.770475 224.713419,258.837756 224.847913,258.972317 C230.349901,260.717534 236.99508,257.428942 244.783449,249.100424 C245.317346,248.293057 245.58837,247.557049 245.58837,246.882204 C245.453877,244.869904 245.388668,241.713834 245.388668,237.413995 L247.200249,144.939923 C247.200249,143.329267 246.324006,142.254817 244.58171,141.716572 M242.36665,260.381131 C235.519732,265.618821 228.000348,271.362134 219.812575,277.606994 C211.622763,283.853892 204.038171,289.595166 197.058797,294.834895 C194.641998,296.712634 192.728529,297.517962 191.320427,297.250878 C189.910288,296.979717 189.337674,295.772745 189.60666,293.625883 C189.60666,290.804177 185.445527,285.433965 177.12326,277.507092 C155.239612,256.955939 144.702286,230.231285 145.507207,197.320897 C146.314165,169.114032 159.402783,145.276325 184.775099,125.799623 C192.559394,119.891166 199.842396,113.646307 206.624105,107.063006 C213.40174,100.483783 219.411133,92.4916675 224.646173,83.0886995 C226.791948,78.9274988 229.74672,78.7908989 233.506412,82.6850162 C253.851541,105.788753 274.188519,119.422241 294.521421,123.583442 C300.964861,124.792453 301.635288,127.345037 296.534742,131.239154 C290.223757,135.808116 286.800298,141.449489 286.266402,148.163273 L286.266402,148.566956 L286.869583,240.639384 C286.869583,246.816963 289.115209,251.047483 293.614612,253.330944 C298.111978,255.614406 302.978181,253.869189 308.215258,248.093254 C310.228579,245.809793 312.14001,245.238928 313.953628,246.380658 C315.765209,247.522389 315.797813,249.571388 314.053479,252.525616 C309.221918,259.777645 304.555417,266.897152 300.060089,273.880058 C295.560686,280.865004 291.76839,288.119071 288.681163,295.638184 L288.479423,295.842064 C286.602634,298.928815 284.326441,298.928815 281.65492,295.842064 C280.185686,294.22937 278.449503,293.150842 276.444334,292.618714 C261.216054,289.258763 251.597763,279.119787 247.593539,262.195668 C247.322515,261.388301 246.656163,260.582973 245.58837,259.777645 C244.37997,259.645123 243.304026,259.844926 242.36665,260.381131" id="Fill-3"></path>
                    <path d="M398.830557,129.224815 L399.635477,231.772622 C399.635477,233.656477 400.371113,235.065291 401.850537,236.003142 L432.861372,254.539955 C436.215547,256.285172 439.033787,256.018089 441.320169,253.732589 L444.74159,249.903713 C445.010577,249.903713 445.14507,249.77323 445.14507,249.502069 C456.018628,233.786961 461.455408,214.179774 461.455408,190.674393 C461.320915,177.375269 458.535278,165.256613 453.098499,154.308231 C447.66172,143.363926 440.513211,132.851849 431.652972,122.778114 C425.87996,116.465974 415.475089,117.674985 400.442435,126.405148 C399.364453,127.077953 398.830557,128.015803 398.830557,129.224815 M336.001928,25.0643132 C334.392087,22.3792072 334.559185,20.364868 336.507296,19.0192568 C338.451332,17.679762 340.434085,18.1486871 342.447406,20.4301098 C348.756352,28.6240665 353.655159,36.8180232 357.145865,45.0099412 C357.681799,46.4901135 358.556004,47.362722 359.764404,47.6298054 C360.972803,47.8989276 362.04671,47.226122 362.986123,45.6154662 C377.617336,21.7084404 401.716044,8.00767175 435.278171,4.51519902 C438.228867,4.38267671 439.840746,5.59168799 440.111769,8.14019407 C440.378718,10.6927778 438.834085,12.1036307 435.479911,12.372753 C421.786074,13.0455586 412.120915,16.7378342 406.482396,23.4536574 C400.843877,30.1715194 398.090845,43.4665659 398.227376,63.3449133 L398.830557,115.524046 C398.830557,117.136741 399.299245,118.17857 400.238658,118.647495 C401.178072,119.120498 402.319225,119.018558 403.664155,118.345752 C411.986421,113.91339 420.408539,109.012103 428.934583,103.637814 C437.458588,98.2676017 445.346809,92.1532259 452.595169,85.3048804 C457.428767,80.2017518 460.314254,81.0723215 461.255706,87.9227058 C461.657147,92.8933121 463.737714,97.3256739 467.497406,101.219791 C471.25506,105.117986 474.611272,108.944823 477.566044,112.704379 C493.002177,132.719326 500.185328,154.141049 499.111421,176.973625 C497.768529,200.209884 490.11669,218.948539 476.155905,233.183475 C470.382893,239.226492 463.974095,245.039125 456.925437,250.611178 C449.876779,256.185271 443.867386,261.993826 438.90337,268.036844 L438.70163,267.635199 C430.646312,278.110578 424.604314,287.515585 420.577674,295.842064 C418.696809,299.734143 416.28001,299.734143 413.329314,295.842064 C398.559533,277.576412 376.074742,263.741082 345.870865,254.338114 C342.916093,253.398225 341.505954,252.221834 341.642485,250.81302 C341.772903,249.400128 342.848847,248.429657 344.864205,247.889374 C353.453419,244.937185 357.681799,236.003142 357.549344,221.0954 L357.145865,99.0036103 C357.011372,80.7399963 354.96341,65.8628373 351.006054,54.3782495 C347.042584,42.8936617 342.043926,33.1237088 336.001928,25.0643132" id="Fill-5"></path>
                    <path d="M587.110626,137.68667 L586.908887,235.398432 C586.908887,239.698272 587.982793,242.450658 590.130606,243.659669 L604.629364,252.12071 C607.714553,254.004565 612.413658,250.711895 618.72668,242.248816 C620.065497,240.505638 621.74666,240.134576 623.757942,241.141745 C625.7733,242.148915 625.7733,243.861511 623.757942,246.279534 C609.662664,261.994641 598.856352,277.440627 591.339006,292.61749 C589.0567,295.70628 586.566541,295.70628 583.872604,292.61749 C576.316541,283.887328 569.267883,277.238785 562.72663,272.671863 C556.181302,268.106978 546.591541,264.345384 533.949195,261.389116 C531.532396,260.71835 530.323996,259.643899 530.323996,258.165766 C530.323996,256.689671 531.196163,255.615221 532.942535,254.942415 C541.935229,253.466321 546.365348,245.743328 546.232893,231.771398 L546.232893,146.551394 C546.232893,132.850625 543.6816,124.458904 538.581054,121.368076 C532.671511,117.473959 527.83995,118.882773 524.082296,125.598596 C522.602873,128.420302 520.925785,129.093108 519.048996,127.612936 C517.166093,126.136841 517.235378,123.786099 519.248698,120.562748 C523.140845,114.38517 526.867932,108.070991 530.425885,101.62429 C533.981799,95.1755503 537.639602,88.7288493 541.399294,82.2821483 C543.6816,78.2534699 546.707694,77.5154226 550.483688,80.0659674 C570.311223,89.6055354 582.185328,101.693609 586.099891,116.330189 C586.50337,117.675801 587.312366,118.515788 588.520765,118.850152 C589.729165,119.186555 590.803072,118.748212 591.742485,117.539201 L622.75332,81.878465 C623.558241,81.073137 624.495616,80.7041134 625.571561,80.7713939 C626.643429,80.8407133 627.515596,81.4095398 628.190099,82.48399 L649.331998,122.978732 C649.867932,124.187743 649.735477,125.331513 648.930557,126.403924 L624.76664,155.416117 C623.827227,156.358045 622.783887,156.75969 621.644771,156.625129 C620.503618,156.492606 619.73334,155.88912 619.329861,154.810592 L603.019523,124.591427 C602.481551,123.786099 601.63995,123.282514 600.500835,123.080672 C599.359682,122.878831 598.31838,123.249893 597.381004,124.187743 L587.917584,135.672331 C587.377575,136.210576 587.110626,136.881342 587.110626,137.68667" id="Fill-7"></path>
                    <path d="M713.771079,112.301307 L714.578037,228.348041 C714.578037,230.36238 715.382957,231.773233 716.992798,232.578561 L752.635492,254.74037 C756.12416,257.02587 759.34588,256.351026 762.300651,252.726031 C775.053037,239.025262 780.826049,222.576184 779.617649,203.366565 C779.348663,191.413052 777.031715,180.733792 772.67088,171.332863 C768.308007,161.931934 762.903832,153.603416 756.460393,146.349348 C745.990313,135.741447 738.002242,122.576884 732.498216,106.861776 C732.22923,106.191009 731.624011,105.622182 730.686635,105.14918 C729.745184,104.680255 728.873017,104.645595 728.068096,105.049278 C724.041456,106.527412 720.012778,107.801665 715.986138,108.876115 C714.506715,109.41436 713.771079,110.558129 713.771079,112.301307 L713.771079,112.301307 Z M708.93748,76.6405714 L701.487381,76.6405714 L717.598017,28.6919587 C721.891605,16.067679 725.78579,8.27740563 729.276496,5.32113859 C733.303136,1.82866586 738.06745,0.0814100959 743.573514,0.0814100959 C756.3259,0.0814100959 762.70413,4.91745522 762.70413,14.5875067 C762.70413,21.3053687 757.601546,29.6318477 747.400452,39.5710214 L708.93748,76.6405714 Z M735.719935,292.415445 C733.706615,295.771318 731.220532,295.771318 728.269836,292.415445 C713.500055,274.015231 691.08251,260.179901 661.011088,250.911494 C658.596327,250.242766 657.42257,249.168316 657.487778,247.688144 C657.557063,246.214088 658.325303,245.139638 659.804727,244.464793 C668.391904,241.512604 672.691605,232.578561 672.691605,217.67082 L672.088424,114.921171 C672.088424,113.445077 671.953931,112.270725 671.684945,111.396078 C671.413921,110.523469 671.51581,109.716103 671.986536,108.978055 C672.457261,108.240008 673.362033,107.801665 674.704925,107.669143 C710.414866,104.714914 742.165413,94.9755435 769.95249,78.4530689 C771.16089,77.7843409 772.269438,77.5824992 773.276098,77.8495827 C774.282758,78.1207437 774.853335,79.058594 774.987828,80.6712886 C777.268096,95.1773852 784.381963,109.41436 796.333504,123.382212 C802.907361,131.441607 808.38082,142.45727 812.743693,156.423083 C817.104528,170.392974 818.816257,182.010084 817.878882,191.276452 C816.535989,202.157554 812.978037,211.927507 807.207063,220.590389 C801.434051,229.255309 794.854081,237.212765 787.473265,244.464793 C778.745482,253.062434 769.347271,260.316501 759.280671,266.224958 C749.212033,272.135453 741.358454,280.865615 735.719935,292.415445 L735.719935,292.415445 Z" id="Fill-9"></path>
                    <path d="M908.49581,216.059349 C908.361317,237.684952 912.387957,250.17467 920.577768,253.532582 C921.515144,254.205388 921.987908,255.110617 921.987908,256.252348 C921.987908,257.394078 921.515144,258.236105 920.577768,258.770272 C908.49581,267.906156 898.69412,280.061511 891.176774,295.236335 C890.371854,296.308747 889.365194,296.84903 888.158832,296.84903 C886.948395,296.84903 885.943772,296.308747 885.136814,295.236335 C877.61743,280.061511 867.416337,267.971398 854.529458,258.972113 C853.7225,258.435908 853.321059,257.56126 853.321059,256.352249 C853.321059,255.143238 853.787709,254.205388 854.72916,253.532582 C863.452868,250.17467 867.817778,237.684952 867.817778,216.059349 L867.817778,149.170239 C867.817778,135.471509 865.266486,127.077749 860.165939,123.986921 C854.258434,120.092804 849.424836,121.503657 845.66922,128.217441 C844.187758,131.039147 842.512709,131.711953 840.633882,130.23178 C838.750979,128.755686 838.822301,126.404944 840.835621,123.181593 C844.727768,117.006053 848.452818,110.689836 852.01077,104.243135 C855.566685,97.7964339 859.224488,91.3497329 862.986218,84.9009932 C865.131993,81.0068759 868.151973,80.201548 872.046158,82.4829706 L872.249935,82.6848123 C891.981695,92.6260248 903.794667,104.781379 907.688852,119.150876 C907.9558,120.631048 908.626228,121.503657 909.698096,121.77074 C910.76589,122.041901 911.839796,121.77074 912.913703,120.965412 C920.278216,114.787834 927.844468,108.271813 935.614498,101.421429 C943.38249,94.5730834 948.674587,88.2609436 951.488752,82.4829706 C952.960025,78.9925367 955.372749,79.0598172 958.72081,82.6848123 C966.757788,91.1458524 973.618971,97.8637145 979.314548,102.832282 C985.006049,107.802888 994.693623,111.495164 1008.37523,113.913186 C1010.79,114.451431 1012.031,115.49326 1012.10028,117.036635 C1012.16549,118.582049 1011.32593,119.623879 1009.5816,120.158046 C1006.09089,121.503657 1003.00366,123.819739 1000.31992,127.11037 C997.632092,130.40304 996.293275,135.873153 996.293275,143.528866 L996.293275,228.752948 C996.293275,242.449639 998.840492,250.845437 1003.94511,253.934226 C1009.85058,257.56126 1014.61693,256.085166 1018.24009,249.501865 C1019.71748,246.95132 1021.42921,246.380454 1023.37732,247.789269 C1025.32136,249.200122 1025.28875,251.518243 1023.27543,254.741593 C1019.24879,261.055772 1015.45242,267.402571 1011.89854,273.779953 C1008.34059,280.159373 1004.75003,286.508212 1001.12484,292.818313 C998.710075,296.577869 995.69417,297.452516 992.087311,295.438177 C967.770562,283.621264 955.615244,266.09162 955.615244,242.855361 L955.816983,139.702029 C955.816983,135.671312 954.810323,133.053486 952.797003,131.844475 L952.595263,131.844475 L952.595263,131.440792 L935.477967,117.338378 C934.000582,116.263928 932.457987,116.198687 930.848146,117.136537 L909.903912,133.455131 C908.96246,134.129975 908.49581,134.935303 908.49581,135.873153 L908.49581,216.059349 Z" id="Fill-11"></path>
                </g>
                <g id="Group-28">
                    <path d="M1233.02281,310.230069 C1209.37051,311.940273 1186.64783,322.968845 1168.1431,337.40558 C1148.43556,352.772927 1132.12441,372.021906 1117.89674,392.474967 C1100.85167,416.985171 1081.16453,459.942314 1082.69758,457.366804 C1084.87281,453.70558 1089.0561,449.485171 1093.79798,441.470886 C1115.63793,404.513743 1144.64369,368.864763 1182.32184,347.221906 C1202.16596,335.821906 1226.55828,326.064763 1249.57045,332.793335 C1269.01092,338.48109 1285.43216,353.679049 1291.26471,373.311702 C1298.19813,396.638233 1290.42275,422.023947 1267.42486,432.797416 C1246.21077,442.736192 1219.71865,436.80762 1208.8425,414.660682 C1201.2241,399.150478 1205.51136,379.834151 1217.8696,367.985171 C1223.74088,362.358641 1231.43675,358.234151 1239.71363,358.130069 C1249.71723,358.00558 1259.81461,362.813743 1266.23837,370.374967 C1267.02732,371.301498 1270.11178,374.348437 1270.63572,375.462722 C1271.47563,377.2566 1271.88744,374.438233 1268.03645,369.352518 C1253.74558,350.487212 1229.15551,343.521906 1210.81183,359.740273 C1192.63328,375.80762 1186.92101,403.450478 1197.97451,425.536192 C1207.12801,443.817824 1226.60721,455.340273 1246.87944,455.270886 C1272.11577,455.189253 1295.15851,441.623947 1308.83983,420.672927 C1328.84704,390.013743 1316.62947,347.362722 1288.11297,326.423947 C1272.32779,314.83211 1252.61618,308.813743 1233.02281,310.230069" id="Fill-14"></path>
                    <path d="M1123.89421,272.491294 L1135.99762,282.952518 C1135.13527,288.109661 1134.69493,293.258641 1134.72958,298.199457 C1134.74182,299.899457 1134.79278,301.60762 1134.85802,303.319865 L1125.9512,297.2566 C1124.14293,289.093335 1123.33359,280.834151 1123.89421,272.491294 L1123.89421,272.491294 Z M1126.80947,300.8566 L1135.01499,306.446396 C1135.40234,312.840273 1136.20556,319.254559 1137.5898,325.436192 L1135.43699,324.787212 C1131.89384,316.925988 1128.89092,308.946396 1126.80947,300.8566 L1126.80947,300.8566 Z M1142.93919,339.950478 C1140.80881,335.944355 1138.75386,331.897416 1136.83754,327.80762 L1138.35632,328.264763 C1139.58359,332.262722 1141.39186,336.064763 1142.93919,339.950478 L1142.93919,339.950478 Z M1147.21829,341.148437 L1148.72485,339.223947 C1149.56884,339.630069 1150.5372,339.579049 1151.318,339.125988 L1152.13549,340.168845 C1150.72271,342.809661 1149.13461,345.364763 1147.36507,347.799457 C1148.05006,346.860682 1147.81969,344.266804 1147.21829,341.148437 L1147.21829,341.148437 Z M1165.32345,311.525988 C1166.40393,307.70762 1166.8667,303.342314 1166.89728,298.766804 L1168.37734,297.289253 C1167.65362,302.091294 1166.64653,306.850478 1165.32345,311.525988 L1165.32345,311.525988 Z M1169.5679,270.08109 L1164.72205,278.30558 C1163.88621,274.189253 1162.89543,270.289253 1161.86184,266.872927 C1161.71098,266.377008 1161.31753,265.211702 1160.77525,263.679049 L1166.5711,248.044355 C1168.11231,255.274967 1169.13571,262.660682 1169.5679,270.08109 L1169.5679,270.08109 Z M1164.27559,238.654559 C1164.73632,240.291294 1165.1624,241.946396 1165.56197,243.603539 L1159.45829,260.062722 C1157.64797,255.213743 1155.16695,249.058641 1153.14054,245.460682 L1154.60836,212.872927 C1157.79679,220.248437 1163.29093,235.123947 1164.27559,238.654559 L1164.27559,238.654559 Z M1152.1518,211.964763 L1150.62282,245.874967 C1147.58321,250.20558 1144.94113,255.003539 1142.73125,260.083131 L1131.86122,243.562722 C1132.02431,243.238233 1132.17517,242.90762 1132.3403,242.58109 C1134.19342,238.991294 1146.85745,219.536192 1152.1518,211.964763 L1152.1518,211.964763 Z M1141.70377,281.974967 L1142.52534,280.940273 C1143.22664,281.33211 1144.03801,281.389253 1144.75765,281.142314 L1147.49351,284.88109 C1146.78202,285.891294 1146.85134,287.213743 1147.56894,288.148437 L1144.47632,291.646396 C1143.73018,291.20558 1142.85356,291.146396 1142.09111,291.43211 L1140.36235,289.083131 C1140.69261,286.697416 1141.13907,284.323947 1141.70377,281.974967 L1141.70377,281.974967 Z M1140.12586,290.866804 L1141.0616,292.140273 C1140.98005,292.236192 1140.88628,292.321906 1140.81696,292.428029 C1140.10344,293.442314 1140.17071,294.766804 1140.88424,295.701498 L1139.72629,297.013743 C1139.76502,294.9566 1139.89754,292.911702 1140.12586,290.866804 L1140.12586,290.866804 Z M1140.819,309.397416 C1140.72726,309.525988 1140.65183,309.662722 1140.5866,309.801498 C1140.53767,309.397416 1140.47447,308.983131 1140.42554,308.577008 L1140.93928,309.258641 C1140.89851,309.30762 1140.85366,309.346396 1140.819,309.397416 L1140.819,309.397416 Z M1141.17372,314.074967 L1141.75881,313.419865 C1142.5233,313.838233 1143.41623,313.866804 1144.17868,313.536192 L1148.21926,318.872927 C1147.54651,319.844355 1147.57709,321.087212 1148.1948,322.011702 L1144.79639,325.972927 C1144.30915,325.717824 1143.78318,325.625988 1143.26741,325.672927 C1143.26537,325.664763 1143.25925,325.658641 1143.26129,325.654559 C1142.50292,321.797416 1141.77512,317.944355 1141.17372,314.074967 L1141.17372,314.074967 Z M1146.88599,339.548437 C1146.25809,336.683131 1145.39983,333.558641 1144.66591,330.938233 C1144.72707,330.913743 1144.78212,330.889253 1144.8392,330.8566 L1147.93997,334.815784 C1147.84415,334.913743 1147.74834,335.011702 1147.66272,335.13211 C1146.939,336.160682 1147.02258,337.501498 1147.75649,338.436192 L1146.88599,339.548437 Z M1157.96192,325.442314 L1157.59089,325.919865 C1156.79786,325.538233 1155.89474,325.564763 1155.13433,325.954559 L1152.45964,322.411702 C1152.56564,322.301498 1152.66554,322.193335 1152.75728,322.066804 C1153.48303,321.034151 1153.39741,319.683131 1152.65127,318.738233 L1155.85601,315.013743 C1156.52876,315.321906 1157.28713,315.346396 1157.95989,315.099457 L1159.71515,317.485171 C1159.27277,320.164763 1158.68564,322.819865 1157.96192,325.442314 L1157.96192,325.442314 Z M1159.98425,315.744355 L1159.00163,314.411702 C1159.09949,314.309661 1159.1953,314.209661 1159.27481,314.093335 C1159.95368,313.136192 1159.92921,311.895375 1159.32577,310.968845 L1160.63254,309.450478 C1160.50207,311.548437 1160.27986,313.650478 1159.98425,315.744355 L1159.98425,315.744355 Z M1160.72632,307.428029 L1158.4145,310.115784 C1157.58478,309.628029 1156.594,309.611702 1155.77446,310.019865 L1152.04783,304.964763 C1152.11714,304.889253 1152.1885,304.819865 1152.24762,304.740273 C1152.91629,303.787212 1152.90202,302.562722 1152.31489,301.640273 L1155.22403,298.393335 C1155.95183,298.836192 1156.81009,298.909661 1157.56847,298.644355 L1160.78136,303.038233 C1160.78544,303.144355 1160.79767,303.250478 1160.79563,303.358641 C1160.8099,304.713743 1160.77932,306.068845 1160.72632,307.428029 L1160.72632,307.428029 Z M1165.41111,282.042314 L1169.75749,274.670886 C1169.91243,280.868845 1169.65352,287.070886 1168.93388,293.213743 L1166.85039,295.289253 C1166.68323,290.895375 1166.15114,286.393335 1165.41111,282.042314 L1165.41111,282.042314 Z M1151.1284,258.336192 C1151.84193,259.838233 1152.74301,262.252518 1153.66039,264.928029 L1151.371,267.803539 C1150.56982,267.487212 1149.67078,267.562722 1148.9389,267.995375 L1147.33653,265.83211 C1148.5006,263.285171 1149.77067,260.78109 1151.1284,258.336192 L1151.1284,258.336192 Z M1146.75756,267.136192 L1148.03783,268.868845 C1147.40992,269.836192 1147.46089,271.044355 1148.07452,271.954559 L1144.89628,275.952518 C1144.42943,275.764763 1143.93608,275.711702 1143.45904,275.78109 C1144.40497,272.854559 1145.51195,269.968845 1146.75756,267.136192 L1146.75756,267.136192 Z M1160.69982,300.809661 L1158.6204,297.972927 C1158.72641,297.868845 1158.83446,297.7566 1158.91805,297.628029 C1159.63361,296.615784 1159.56022,295.287212 1158.84669,294.352518 L1160.17793,292.872927 C1160.43887,295.513743 1160.60808,298.162722 1160.69982,300.809661 L1160.69982,300.809661 Z M1160.01076,291.183131 L1157.88649,293.552518 C1157.08735,293.1566 1156.16588,293.177008 1155.39528,293.566804 L1151.67476,288.483131 C1151.80727,288.360682 1151.92347,288.221906 1152.02948,288.074967 C1152.70835,287.111702 1152.68389,285.866804 1152.06414,284.938233 L1155.19753,281.403539 C1155.91921,281.799457 1156.74282,281.858641 1157.47877,281.599457 L1158.84262,283.442314 C1159.30743,286.011702 1159.71719,288.587212 1160.01076,291.183131 L1160.01076,291.183131 Z M1145.38759,292.493335 L1148.5271,288.944355 C1149.18762,289.274967 1149.91949,289.323947 1150.58816,289.113743 L1154.43915,294.370886 C1154.42488,294.389253 1154.40042,294.40762 1154.38615,294.43211 C1153.71544,295.385171 1153.72971,296.611702 1154.32295,297.530069 L1151.41789,300.774967 C1150.61467,300.289253 1149.66262,300.254559 1148.85124,300.613743 L1145.25712,295.734151 C1145.2877,295.693335 1145.32032,295.664763 1145.34682,295.628029 C1146.02161,294.664763 1145.99919,293.423947 1145.38759,292.493335 L1145.38759,292.493335 Z M1145.74639,326.779049 L1149.11627,322.858641 C1149.82775,323.270886 1150.66155,323.338233 1151.40158,323.083131 L1154.18025,326.754559 C1154.16598,326.777008 1154.14151,326.793335 1154.1252,326.811702 C1153.39333,327.858641 1153.48507,329.228029 1154.25568,330.164763 L1151.07948,334.20762 C1150.40469,333.903539 1149.65447,333.885171 1148.97968,334.128029 L1145.77697,330.038233 C1145.78105,330.034151 1145.78309,330.030069 1145.78921,330.025988 C1146.49661,329.021906 1146.43342,327.713743 1145.74639,326.779049 L1145.74639,326.779049 Z M1145.17761,312.793335 C1145.23673,312.728029 1145.30197,312.668845 1145.3509,312.597416 C1146.042,311.613743 1146.00122,310.342314 1145.35294,309.409661 L1148.75135,305.617824 C1149.4873,305.98109 1150.31906,305.997416 1151.04278,305.697416 L1154.80815,310.817824 C1154.7898,310.846396 1154.76534,310.862722 1154.74903,310.893335 C1154.01104,311.936192 1154.10278,313.303539 1154.87135,314.240273 L1151.67476,317.962722 C1150.85726,317.574967 1149.91949,317.621906 1149.155,318.042314 L1145.17761,312.793335 Z M1139.71202,298.90558 L1141.8424,296.501498 C1142.62524,296.893335 1143.52428,296.883131 1144.28877,296.513743 L1147.85842,301.372927 C1147.81154,301.428029 1147.76057,301.479049 1147.71572,301.542314 C1146.99608,302.5566 1147.07151,303.883131 1147.78911,304.821906 L1144.42128,308.583131 C1143.63029,308.142314 1142.70067,308.128029 1141.92191,308.489253 L1140.18906,306.201498 C1140.06267,304.893335 1139.91996,303.591294 1139.8323,302.279049 C1139.76299,301.148437 1139.72833,300.028029 1139.71202,298.90558 L1139.71202,298.90558 Z M1145.81571,280.48109 C1145.93191,280.372927 1146.03384,280.254559 1146.12762,280.119865 C1146.89211,279.040273 1146.76979,277.609661 1145.92172,276.666804 L1149.00618,272.791294 C1149.67078,273.162722 1150.43119,273.234151 1151.12229,273.034151 L1154.31887,277.342314 C1154.30868,277.360682 1154.29237,277.372927 1154.27606,277.389253 C1153.58904,278.368845 1153.63185,279.634151 1154.27402,280.562722 L1151.15694,284.089253 C1150.29664,283.58109 1149.26305,283.591294 1148.43332,284.048437 L1145.81571,280.48109 Z M1157.22801,276.30762 C1156.56749,276.140273 1155.87436,276.225988 1155.27296,276.538233 L1152.22315,272.425988 C1152.36993,272.289253 1152.50652,272.142314 1152.61865,271.977008 C1153.38518,270.895375 1153.25674,269.452518 1152.40459,268.511702 L1154.13132,266.338233 C1155.31169,269.868845 1156.45945,273.638233 1157.22801,276.30762 L1157.22801,276.30762 Z M1152.23131,338.272927 C1152.92037,337.234151 1152.82251,335.899457 1152.0621,334.974967 L1155.24034,330.934151 C1155.52167,331.068845 1155.82747,331.140273 1156.13326,331.168845 C1155.16083,333.825988 1154.03754,336.421906 1152.75728,338.944355 L1152.23131,338.272927 Z M1130.60134,246.183131 L1141.56922,262.8566 C1139.36137,268.415784 1137.65707,274.248437 1136.50524,280.099457 L1124.16535,269.430069 C1125.00527,261.740273 1127.04391,253.985171 1130.60134,246.183131 L1130.60134,246.183131 Z M1122.64657,241.183131 C1116.99953,253.738233 1114.24737,267.630069 1115.13825,281.397416 C1116.04749,295.350478 1120.27359,308.915784 1126.82578,321.240273 C1132.99062,332.823947 1144.52933,343.128029 1142.47642,357.330069 C1142.14208,357.595375 1141.81793,357.877008 1141.46321,358.123947 C1140.80677,358.589253 1141.60592,359.550478 1142.25624,359.091294 C1142.48661,358.930069 1142.70067,358.738233 1142.92084,358.566804 C1143.24091,358.597416 1143.58544,358.423947 1143.65067,358.030069 C1143.65271,358.017824 1143.65475,358.00762 1143.65475,357.997416 C1144.24799,357.513743 1144.81881,357.009661 1145.36925,356.477008 C1145.61388,356.4566 1145.81775,356.30762 1145.83202,356.00762 C1149.48118,352.377008 1152.31081,347.872927 1155.04055,343.566804 C1159.15249,337.083131 1163.74147,330.897416 1167.41306,324.140273 C1174.62577,310.872927 1178.30347,296.703539 1178.76217,281.613743 C1179.19844,267.311702 1177.09864,253.125988 1172.94389,239.458641 C1168.19386,223.821906 1160.31248,209.491294 1154.94066,194.117824 C1154.84077,193.821906 1154.61244,193.721906 1154.38615,193.748437 C1154.19248,193.721906 1153.99881,193.787212 1153.86426,194.009661 C1144.31119,210.268845 1130.43213,223.862722 1122.64657,241.183131 L1122.64657,241.183131 Z" id="Fill-16"></path>
                    <path d="M140.549337,42.2012939 C129.037138,62.9523143 125.828319,88.0237428 127.771143,111.431906 C129.832208,136.354355 137.000065,160.554355 146.318688,183.6666 C157.480242,211.362518 193.498931,268.762518 192.179931,266.070682 C190.316614,262.240069 178.198939,239.027824 174.091079,230.670682 C155.148038,192.144151 141.211895,148.338029 143.733693,104.925784 C145.060847,82.0584367 150.255302,56.2808857 168.472588,40.6808857 C183.866357,27.5053755 205.559524,22.0625183 225.165124,27.9196612 C248.462701,34.8788449 265.432339,55.2808857 261.854526,80.4502734 C258.556007,103.662518 239.105344,122.61558 214.635549,119.609457 C197.492626,117.503335 183.695112,103.340069 180.547452,86.499253 C179.055167,78.5074163 179.821696,69.8012939 184.261854,62.8053755 C189.631631,54.3563959 199.176543,48.5298653 209.01298,47.2808857 C210.225971,47.1339469 214.45411,46.2094571 215.675255,46.3849673 C217.636427,46.6604775 215.499932,44.7706816 209.147531,45.2155796 C185.550274,46.8666 166.266779,63.6584367 169.791588,87.9053755 C173.279701,111.925784 193.262449,131.844151 217.777093,134.664559 C238.073792,137.003335 258.364374,126.984967 269.401571,109.962518 C283.142004,88.7706816 284.414115,62.0400694 274.377891,39.1155796 C259.695606,5.57068161 217.355095,-7.53135921 184.235351,4.90333467 C165.910017,11.7870081 150.092211,25.0053755 140.549337,42.2012939" id="Fill-18"></path>
                    <g id="Group-22" transform="translate(0.000000, 43.982927)">
                        <path d="M49.2802456,69.0022449 L64.6515903,64.5859184 C68.4923878,68.1308163 72.5533584,71.3144898 76.7060679,73.99 C78.1310771,74.9083673 79.586666,75.8042857 81.0524481,76.6859184 L71.1140787,80.8308163 C63.299972,77.8757143 55.9506753,74.034898 49.2802456,69.0022449 L49.2802456,69.0022449 Z M74.5899597,82.0818367 L83.7597618,78.2634694 C89.3109782,81.4389796 95.1149859,84.2736735 101.041312,86.4961224 L99.3207,87.9410204 C90.8093785,86.6165306 82.4917278,84.7634694 74.5899597,82.0818367 L74.5899597,82.0818367 Z M116.106861,89.9573469 C111.587196,89.5512245 107.079763,89.0593878 102.615142,88.4267347 L103.828133,87.4042857 C107.842215,88.5655102 112.007156,89.1328571 116.106861,89.9573469 L116.106861,89.9573469 Z M119.448191,87.0287755 L118.667392,84.712449 C119.466539,84.2328571 119.951736,83.39 119.998624,82.49 L121.321702,82.3716327 C122.756904,85.0022449 124.024938,87.7308163 125.087069,90.5471429 C124.675264,89.4634694 122.383833,88.2287755 119.448191,87.0287755 L119.448191,87.0287755 Z M104.586507,55.6512245 C101.98928,52.6553061 98.5908669,49.8777551 94.7786104,47.345102 L94.3606892,45.2981633 C97.9711204,48.5328571 101.40419,51.9797959 104.586507,55.6512245 L104.586507,55.6512245 Z M72.2577556,29.4144898 L76.4858947,37.9736735 C72.5859767,36.4246939 68.7818747,35.1185714 65.3610369,34.112449 C64.8636088,33.9695918 63.6750818,33.6634694 62.0930972,33.2797959 L52.193462,19.8614286 C59.088142,22.5308163 65.8176923,25.7144898 72.2577556,29.4144898 L72.2577556,29.4144898 Z M43.0929736,16.6491837 C44.709615,17.1593878 46.3262564,17.7063265 47.930666,18.2818367 L58.3460771,32.4022449 C53.3004434,31.2634694 46.7992209,29.9716327 42.6852456,29.7063265 L16.2379705,10.6430612 C24.1560478,12.0063265 39.5967062,15.5471429 43.0929736,16.6491837 L43.0929736,16.6491837 Z M14.14021,12.2022449 L41.6536938,32.0389796 C43.6107881,36.9573469 46.1774357,41.8002041 49.2109318,46.4287755 L29.4483569,46.4981633 C29.2709952,46.1818367 29.0752858,45.8757143 28.8979241,45.5532653 C26.9102502,42.034898 17.571241,20.7818367 14.14021,12.2022449 L14.14021,12.2022449 Z M66.9552533,59.2736735 L66.5373321,58.0144898 C67.2549334,57.6369388 67.7401297,56.99 67.9297232,56.2553061 L72.5533584,56.0063265 C73.0161297,57.1593878 74.1516521,57.8226531 75.3279473,57.7308163 L76.5633631,62.2328571 C75.7846026,62.6226531 75.2525176,63.3246939 75.0771946,64.1165306 L72.1619396,64.2818367 C70.3516274,62.6981633 68.6085903,61.0287755 66.9552533,59.2736735 L66.9552533,59.2736735 Z M73.5257896,65.4573469 L75.1077742,65.367551 C75.1363151,65.4920408 75.1607788,65.6206122 75.2076675,65.7369388 C75.6704388,66.8838776 76.8120771,67.5491837 77.9802178,67.4655102 L78.442989,69.1593878 C76.7488793,67.9940816 75.1159287,66.7655102 73.5257896,65.4573469 L73.5257896,65.4573469 Z M89.3986397,75.0144898 C89.453683,75.1695918 89.5311513,75.3042857 89.6106583,75.4308163 C89.2416645,75.2532653 88.8624774,75.0797959 88.4975609,74.9002041 L89.3497124,74.834898 C89.3680601,74.8981633 89.3721374,74.9593878 89.3986397,75.0144898 L89.3986397,75.0144898 Z M93.5085377,77.2797959 L93.2781714,76.434898 C94.0508159,76.0185714 94.5563986,75.29 94.6991034,74.4655102 L101.371572,74.0002041 C101.811918,75.1002041 102.869972,75.7512245 103.983069,75.734898 L105.432542,80.7553061 C104.955501,81.0226531 104.588545,81.4144898 104.343909,81.8695918 C104.339831,81.8655102 104.331677,81.867551 104.3276,81.8614286 C100.686589,80.3961224 97.0720802,78.8920408 93.5085377,77.2797959 L93.5085377,77.2797959 Z M117.927366,86.4308163 C115.191511,85.3879592 112.107049,84.4002041 109.515938,83.5777551 C109.526131,83.5206122 109.538363,83.4532653 109.538363,83.3879592 L114.54934,82.9553061 C114.575842,83.0940816 114.60846,83.2267347 114.663504,83.3655102 C115.124236,84.534898 116.294416,85.1961224 117.474788,85.0920408 L117.927366,86.4308163 Z M112.194711,69.4308163 L112.388382,70.0063265 C111.638162,70.4614286 111.167236,71.234898 111.073459,72.0818367 L106.64961,72.3879592 C106.612915,72.2410204 106.580297,72.0940816 106.521176,71.945102 C106.056366,70.7757143 104.880071,70.1063265 103.683389,70.2165306 L102.321578,65.49 C102.94744,65.0940816 103.383709,64.4757143 103.544762,63.7797959 L106.502828,63.6063265 C108.500695,65.4471429 110.39663,67.3961224 112.194711,69.4308163 L112.194711,69.4308163 Z M105.191983,62.4328571 L103.538646,62.5246939 C103.512144,62.3879592 103.477487,62.2532653 103.426521,62.1226531 C102.996368,61.0328571 101.948507,60.3716327 100.845603,60.3736735 L100.282938,58.445102 C101.970932,59.7002041 103.605921,61.0389796 105.191983,62.4328571 L105.191983,62.4328571 Z M98.6438716,57.2614286 L99.626496,60.6695918 C98.7641513,61.0940816 98.2076026,61.9165306 98.103632,62.8226531 L91.8388917,63.1818367 C91.8123893,63.0838776 91.7899643,62.9859184 91.7593847,62.89 C91.327193,61.812449 90.2976799,61.1491837 89.2090462,61.1389796 L88.0857556,56.9226531 C88.848207,56.5573469 89.3823306,55.8777551 89.5739628,55.0981633 L95.006938,54.8083673 C95.0925609,54.867551 95.1904156,54.9144898 95.2821544,54.9777551 C96.4237927,55.7042857 97.5389287,56.4716327 98.6438716,57.2614286 L98.6438716,57.2614286 Z M79.9842008,39.4389796 L76.2025238,31.7655102 C81.466292,35.0267347 86.5119257,38.6410204 91.2558406,42.6042857 L91.8490849,45.4879592 C88.0816784,43.2246939 84.0288623,41.2002041 79.9842008,39.4389796 L79.9842008,39.4389796 Z M52.3483986,38.4389796 C53.9956196,38.6614286 56.5092626,39.2308163 59.2451173,39.9226531 L60.3949102,43.4165306 C59.6956567,43.9104082 59.269581,44.7022449 59.2226923,45.5573469 L56.5418808,45.7144898 C55.0536737,43.3430612 53.6470122,40.9165306 52.3483986,38.4389796 L52.3483986,38.4389796 Z M57.3186026,46.912449 L59.4673291,46.7879592 C59.9239844,47.8430612 60.9657294,48.4634694 62.0645563,48.4410204 L63.6628499,53.2981633 C63.2551219,53.5879592 62.9370941,53.9736735 62.7393461,54.412449 C60.8087541,52.0144898 59.0025192,49.5104082 57.3186026,46.912449 L57.3186026,46.912449 Z M93.0987711,53.6614286 L89.5902719,53.845102 C89.5576536,53.7002041 89.5229968,53.5532653 89.4638762,53.4144898 C89.0112981,52.2553061 87.8594666,51.5920408 86.68521,51.6757143 L86.1735114,49.7553061 C88.5261019,50.9818367 90.8358808,52.2859184 93.0987711,53.6614286 L93.0987711,53.6614286 Z M84.6710338,48.967551 L85.4946444,52.045102 C84.7260771,52.4981633 84.2347649,53.2859184 84.1430261,54.1389796 L77.8538221,54.4757143 C77.8191652,54.2981633 77.7722765,54.1267347 77.7050014,53.9532653 C77.2666938,52.8614286 76.2167943,52.2002041 75.1077742,52.2083673 L73.8601266,47.6512245 C74.587921,47.2634694 75.0873878,46.6042857 75.2708654,45.845102 L77.5643352,45.7104082 C79.9617757,46.7328571 82.3367912,47.7940816 84.6710338,48.967551 L84.6710338,48.967551 Z M77.7661606,61.945102 L76.518513,57.3634694 C77.1566073,56.9879592 77.5949148,56.4063265 77.7926629,55.7287755 L84.2857309,55.3818367 C84.3000014,55.4063265 84.3000014,55.4328571 84.3101946,55.4593878 C84.7403476,56.5389796 85.7759767,57.2022449 86.866649,57.2104082 L87.9899396,61.4206122 C87.1418654,61.8246939 86.5934713,62.6022449 86.4487278,63.4797959 L80.4041606,63.8226531 C80.3878515,63.7757143 80.3817355,63.7308163 80.3654264,63.69 C79.9311961,62.5940816 78.879258,61.934898 77.7661606,61.945102 L77.7661606,61.945102 Z M106.629224,80.4002041 L105.191983,75.4308163 C105.925893,75.0614286 106.43963,74.4002041 106.633301,73.6369388 L111.220241,73.3226531 C111.230434,73.3491837 111.234511,73.3736735 111.240627,73.4002041 C111.713592,74.5838776 112.910273,75.2553061 114.113071,75.1267347 L115.758253,79.9981633 C115.132391,80.3961224 114.708354,81.0165306 114.539147,81.7104082 L109.371195,82.1532653 C109.367117,82.1491837 109.365079,82.1471429 109.365079,82.1389796 C108.912501,80.9981633 107.787171,80.3369388 106.629224,80.4002041 L106.629224,80.4002041 Z M94.6257124,73.2226531 C94.6032873,73.134898 94.5849396,73.0553061 94.5523213,72.9695918 C94.1119751,71.8553061 93.0274187,71.1879592 91.887819,71.2308163 L90.5749349,66.3022449 C91.2864202,65.8859184 91.7532688,65.1981633 91.9020895,64.4267347 L98.2381822,64.0757143 C98.25653,64.1042857 98.25653,64.134898 98.2708005,64.167551 C98.7396876,65.3532653 99.9343306,66.0206122 101.139167,65.8940816 L102.49894,70.612449 C101.730372,71.0777551 101.255369,71.89 101.190133,72.767551 L94.6257124,73.2226531 Z M80.0229349,70.2002041 L79.1768994,67.1063265 C79.9332348,66.6634694 80.4143538,65.9022449 80.5244403,65.0634694 L86.538428,64.7267347 C86.560853,64.8002041 86.5771621,64.8655102 86.6036645,64.9389796 C87.0603198,66.0961224 88.208074,66.7614286 89.3884465,66.6695918 L90.6911374,71.5512245 C89.8899519,71.9757143 89.3680601,72.7410204 89.2416645,73.5981633 L86.3794141,73.7961224 C85.2153507,73.1879592 84.04721,72.5961224 82.9055717,71.945102 C81.9229473,71.3879592 80.9709025,70.8042857 80.0229349,70.2002041 L80.0229349,70.2002041 Z M67.9562255,55.0083673 C67.9297232,54.8512245 67.8889504,54.6961224 67.8298298,54.545102 C67.3385176,53.3165306 66.0806768,52.634898 64.8269133,52.8328571 L63.2714311,48.1246939 C63.9462209,47.7716327 64.4232626,47.1736735 64.6352811,46.4838776 L69.9846722,46.1614286 C69.996904,46.1818367 69.9948654,46.2042857 70.0030199,46.2226531 C70.4433662,47.334898 71.5279226,47.9961224 72.6491745,47.9655102 L73.8947835,52.5042857 C73.0018592,52.9471429 72.4412332,53.8185714 72.3678422,54.7695918 L67.9562255,55.0083673 Z M70.710428,43.1634694 C70.2109612,43.6226531 69.9010879,44.2512245 69.8358515,44.9226531 L64.7270199,45.2308163 C64.6944017,45.034898 64.647513,44.8389796 64.568006,44.6491837 C64.0807711,43.4185714 62.8066212,42.734898 61.5548963,42.9369388 L60.6843971,40.3022449 C64.2805578,41.2410204 68.0601961,42.3471429 70.710428,43.1634694 L70.710428,43.1634694 Z M119.784567,81.2573469 C119.295294,80.1104082 118.125114,79.4634694 116.934549,79.5940816 L115.295482,74.7226531 C115.562544,74.5593878 115.788833,74.3369388 115.978426,74.1022449 C117.672536,76.367551 119.22598,78.7287755 120.632641,81.1818367 L119.784567,81.2573469 Z M30.9549117,48.9818367 L50.8948484,48.9185714 C54.3319952,53.812449 58.2808406,58.4287755 62.541598,62.5981633 L46.8685346,67.0940816 C40.9014357,62.1879592 35.5296196,56.2369388 30.9549117,48.9818367 L30.9549117,48.9818367 Z M22.4211652,52.9104082 C29.8295825,64.5206122 39.937159,74.4206122 51.9325161,81.2083673 C64.0970802,88.0879592 77.7559674,91.9655102 91.6452209,93.2206122 C104.698632,94.3961224 119.631669,90.367551 130.381417,99.8614286 C130.424229,100.281837 130.477233,100.710408 130.493542,101.136939 C130.520045,101.943061 131.761576,101.804286 131.733035,101.004286 C131.724881,100.722653 131.682069,100.443061 131.657606,100.167551 C131.859431,99.9165306 131.904281,99.5287755 131.612756,99.2553061 C131.602562,99.2491837 131.594408,99.2389796 131.582176,99.2369388 C131.508785,98.4736735 131.394621,97.7226531 131.253955,96.967551 C131.368119,96.7512245 131.355887,96.4961224 131.113289,96.3185714 C130.075621,91.2757143 127.853504,86.4430612 125.751666,81.7961224 C122.579542,74.8042857 119.91504,67.5777551 116.276068,60.8002041 C109.134712,47.4961224 99.3003136,36.6655102 86.9298468,28.0206122 C75.2137835,19.8308163 62.2011451,13.8246939 48.5014852,9.83081633 C32.8345377,5.25122449 16.5376505,4.0144898 0.744307419,0.0981632653 C0.440550077,0.0226530612 0.23260881,0.157346939 0.130676816,0.363469388 C0.00428114374,0.506326531 -0.0528007728,0.710408163 0.0613630603,0.945102041 C8.42794111,17.845102 12.1994249,36.912449 22.4211652,52.9104082 L22.4211652,52.9104082 Z" id="Fill-20"></path>
                    </g>
                    <g id="Group-25" transform="translate(453.492754, 432.653061)">
                        <path d="M56.3637396,261.566396 C89.3632033,274.311294 131.826033,261.615375 146.824307,228.215375 C157.080704,205.382722 156.063423,178.641906 142.522777,157.319457 C131.644594,140.192927 111.453905,129.984763 91.13682,132.129661 C66.5936345,134.717416 46.4212929,154.443947 42.7068911,178.429661 C38.9537551,202.639865 58.0782358,219.615375 81.6551059,221.490886 C88.0054691,221.997008 90.1603115,220.12558 88.193024,220.384763 C86.9739174,220.545988 82.7518942,219.584763 81.5450194,219.42558 C71.7167365,218.082722 62.2289065,212.166396 56.9406747,203.666396 C52.5637149,196.629661 51.8807705,187.915375 53.4505232,179.939865 C56.7571971,163.12762 70.6851848,149.094967 87.8484939,147.15211 C112.344791,144.380682 131.616053,163.517416 134.6944,186.760273 C138.03573,211.962314 120.872421,232.20109 97.5096082,238.939865 C77.8489653,244.609253 56.2067643,238.960273 40.9434676,225.637824 C22.8709251,209.864355 17.9251848,184.041906 16.8120874,161.160273 C14.7020951,117.729661 29.0500426,74.0561918 48.3620781,35.7133347 C52.5474058,27.3949673 64.8872929,4.30108977 66.783228,0.484763239 C68.1287303,-2.1948286 31.5677628,54.8623143 20.1432249,82.4500694 C10.6064676,105.472518 3.20824348,129.60109 0.910696342,154.507212 C-1.25433921,177.888845 1.72003637,202.992927 13.032449,223.856192 C22.4122311,241.137824 38.1016036,254.507212 56.3637396,261.566396" id="Fill-23"></path>
                    </g>
                    <path d="M397.875433,573.238233 L407.779145,577.479049 C406.30317,578.342314 404.839426,579.225988 403.404224,580.13211 C399.225012,582.762722 395.137539,585.913743 391.258008,589.421906 L375.93559,584.860682 C382.648831,579.887212 390.034824,576.113743 397.875433,573.238233 L397.875433,573.238233 Z M426.149329,566.393335 L427.855671,567.8566 C421.908958,570.021906 416.078448,572.803539 410.496652,575.925988 L401.365584,572.021906 C409.293855,569.411702 417.627814,567.640273 426.149329,566.393335 L426.149329,566.393335 Z M430.650646,566.979049 L429.44581,565.940273 C433.918586,565.352518 438.430096,564.901498 442.955876,564.542314 C438.845978,565.323947 434.67696,565.854559 430.650646,566.979049 L430.650646,566.979049 Z M451.940162,564.034151 C450.851528,566.838233 449.556992,569.554559 448.095287,572.168845 L446.778326,572.048437 C446.735515,571.142314 446.258473,570.295375 445.461365,569.80762 L446.268666,567.501498 C449.214501,566.325988 451.518164,565.115784 451.940162,564.034151 L451.940162,564.034151 Z M420.785668,608.991294 L421.226014,606.946396 C425.062734,604.450478 428.481533,601.70558 431.10934,598.736192 C427.892366,602.374967 424.430756,605.789253 420.785668,608.991294 L420.785668,608.991294 Z M378.379919,634.023947 L388.40595,620.701498 C389.992012,620.334151 391.178501,620.034151 391.680006,619.901498 C395.111037,618.925988 398.931448,617.6566 402.841559,616.142314 L398.533913,624.664763 C392.059193,628.301498 385.297025,631.419865 378.379919,634.023947 L378.379919,634.023947 Z M342.340844,642.899457 L368.963442,624.087212 C373.083533,623.860682 379.596987,622.634151 384.650776,621.544355 L374.102853,635.564763 C372.48825,636.119865 370.871609,636.652518 369.248851,637.148437 C365.74443,638.217824 350.267076,641.611702 342.340844,642.899457 L342.340844,642.899457 Z M355.329018,608.113743 C355.510457,607.789253 355.702089,607.487212 355.891683,607.174967 L375.654258,607.43211 C372.571834,612.03211 369.958298,616.848437 367.952277,621.742314 L340.251238,641.319865 C343.765853,632.772927 353.308726,611.611702 355.329018,608.113743 L355.329018,608.113743 Z M398.770396,589.793335 L401.677496,589.989253 C401.85078,590.78109 402.374711,591.489253 403.147355,591.885171 L401.873205,596.370886 C400.69691,596.277008 399.551195,596.925988 399.082307,598.074967 L394.462749,597.783131 C394.277233,597.042314 393.794076,596.391294 393.084629,596.011702 L393.514782,594.7566 C395.188505,593.017824 396.939697,591.358641 398.770396,589.793335 L398.770396,589.793335 Z M405.094256,584.979049 L404.617215,586.668845 C403.453151,586.570886 402.299281,587.225988 401.828355,588.370886 C401.781467,588.489253 401.754964,588.613743 401.720307,588.736192 L400.1424,588.636192 C401.744771,587.340273 403.389953,586.128029 405.094256,584.979049 L405.094256,584.979049 Z M416.053984,579.40558 L415.20591,579.334151 C415.570827,579.158641 415.952052,578.987212 416.319008,578.811702 C416.241539,578.944355 416.164071,579.077008 416.109028,579.223947 C416.076409,579.279049 416.074371,579.342314 416.053984,579.40558 L416.053984,579.40558 Z M431.097108,572.521906 C431.101185,572.515784 431.111379,572.519865 431.117494,572.515784 C431.353977,572.974967 431.720932,573.366804 432.193896,573.640273 L430.697535,578.644355 C429.584437,578.619865 428.522306,579.262722 428.067689,580.3566 L421.401337,579.825988 C421.264748,579.001498 420.763243,578.266804 419.996714,577.846396 L420.233196,577.001498 C423.813048,575.419865 427.447943,573.952518 431.097108,572.521906 L431.097108,572.521906 Z M444.274876,569.415784 C443.096542,569.301498 441.920247,569.950478 441.447283,571.115784 C441.390201,571.2566 441.359621,571.387212 441.329042,571.521906 L436.322142,571.046396 C436.326219,570.979049 436.316026,570.913743 436.303794,570.854559 C438.898983,570.058641 441.993638,569.097416 444.741725,568.08109 L444.274876,569.415784 Z M433.099052,590.795375 L430.147102,590.597416 C429.990127,589.899457 429.559974,589.272927 428.940227,588.872927 L430.346889,584.162722 C431.541532,584.28109 432.721904,583.625988 433.198946,582.458641 C433.258066,582.311702 433.298839,582.168845 433.333496,582.019865 L437.755306,582.370886 C437.834813,583.211702 438.299623,583.989253 439.049842,584.4566 L438.845978,585.028029 C437.031589,587.050478 435.113229,588.974967 433.099052,590.795375 L433.099052,590.795375 Z M426.830235,595.901498 L427.411247,593.977008 C428.514151,593.989253 429.568128,593.338233 430.010513,592.254559 C430.05944,592.123947 430.096136,591.989253 430.128754,591.850478 L431.780052,591.958641 C430.181759,593.340273 428.532499,594.658641 426.830235,595.901498 L426.830235,595.901498 Z M421.80091,599.321906 C421.709171,599.383131 421.607239,599.428029 421.523655,599.485171 L416.092719,599.146396 C415.905164,598.364763 415.381233,597.679049 414.620821,597.303539 L415.782845,593.099457 C416.873518,593.101498 417.909147,592.448437 418.351532,591.372927 C418.38415,591.28109 418.404536,591.177008 418.433077,591.083131 L424.691702,591.499457 C424.791595,592.40762 425.339989,593.236192 426.198256,593.670886 L425.183014,597.070886 C424.067878,597.848437 422.944587,598.603539 421.80091,599.321906 L421.80091,599.321906 Z M418.274063,608.777008 L417.654317,611.650478 C412.873706,615.572927 407.793416,619.138233 402.499068,622.352518 L406.352097,614.70762 C410.413068,612.987212 414.490348,611.00762 418.274063,608.777008 L418.274063,608.777008 Z M382.970936,608.213743 L385.657864,608.397416 C385.686405,609.250478 386.108403,610.048437 386.807657,610.550478 L385.61913,614.030069 C382.877159,614.697416 380.359439,615.242314 378.70814,615.448437 C380.035295,612.985171 381.458266,610.566804 382.970936,608.213743 L382.970936,608.213743 Z M389.251986,599.579049 C389.445657,600.015784 389.757569,600.40762 390.167335,600.701498 L388.522153,605.538233 C387.421287,605.50558 386.377504,606.113743 385.906578,607.166804 L383.755813,607.019865 C385.466232,604.442314 387.29693,601.952518 389.251986,599.579049 L389.251986,599.579049 Z M412.64334,604.4566 L413.16727,602.536192 C414.345604,602.636192 415.497436,601.979049 415.968362,600.830069 C416.027482,600.689253 416.062139,600.540273 416.094757,600.399457 L419.605295,600.617824 C417.328134,601.968845 415.004085,603.252518 412.64334,604.4566 L412.64334,604.4566 Z M403.991352,608.417824 L401.703998,608.262722 C401.526637,607.501498 401.031247,606.836192 400.30753,606.446396 L401.597989,601.899457 C402.707009,601.915784 403.767102,601.264763 404.211525,600.177008 C404.2788,600.001498 404.333844,599.83211 404.368501,599.658641 L410.64955,600.048437 C410.735173,600.911702 411.220369,601.697416 411.980782,602.160682 L411.130669,605.228029 C408.788272,606.377008 406.401025,607.421906 403.991352,608.417824 L403.991352,608.417824 Z M406.961651,590.466804 C406.979998,590.425988 406.990191,590.38109 407.002423,590.334151 L413.046991,590.734151 C413.183579,591.611702 413.725858,592.393335 414.565777,592.809661 L413.409868,597.009661 C412.315119,597.00558 411.269297,597.6566 410.833028,598.734151 C410.820796,598.758641 410.818757,598.785171 410.808564,598.813743 L404.317535,598.401498 C404.127941,597.723947 403.687595,597.13211 403.059694,596.754559 L404.350153,592.189253 C405.46325,592.20558 406.521304,591.558641 406.961651,590.466804 L406.961651,590.466804 Z M436.136626,572.293335 C436.142742,572.285171 436.142742,572.279049 436.142742,572.279049 L441.310694,572.772927 C441.469708,573.468845 441.889668,574.093335 442.509414,574.493335 L440.82142,579.354559 C439.620661,579.213743 438.413787,579.868845 437.930629,581.048437 C437.922474,581.077008 437.922474,581.099457 437.908204,581.13211 L433.32738,580.770886 C433.141864,580.003539 432.634243,579.338233 431.904409,578.960682 L433.384462,574.00558 C434.542409,574.08109 435.671816,573.428029 436.136626,572.293335 L436.136626,572.293335 Z M427.878096,581.589253 C427.9311,582.458641 428.397949,583.28109 429.162439,583.754559 L427.757816,588.4566 C426.555018,588.321906 425.358337,588.977008 424.879256,590.160682 C424.85887,590.191294 424.860909,590.219865 424.842561,590.252518 L418.50443,589.840273 C418.367841,589.068845 417.909147,588.377008 417.201739,587.952518 L418.56355,583.038233 C419.692957,583.083131 420.789745,582.434151 421.242323,581.321906 C421.272902,581.240273 421.293289,581.158641 421.313675,581.066804 L427.878096,581.589253 Z M409.583341,582.236192 C410.733134,581.597416 411.907391,581.011702 413.075532,580.417824 L415.935743,580.642314 C416.051946,581.497416 416.567722,582.272927 417.36483,582.701498 L416.017289,587.572927 C414.838955,587.470886 413.683046,588.121906 413.214159,589.277008 C413.185618,589.348437 413.173386,589.415784 413.150961,589.487212 L407.139012,589.095375 C407.039119,588.2566 406.566154,587.491294 405.811858,587.040273 L406.686434,583.954559 C407.638479,583.360682 408.598678,582.783131 409.583341,582.236192 L409.583341,582.236192 Z M398.886598,599.309661 C398.949796,600.262722 399.500229,601.134151 400.391114,601.591294 L399.102694,606.117824 C397.981442,606.077008 396.888731,606.725988 396.436153,607.83211 C396.427998,607.852518 396.430037,607.874967 396.417805,607.891294 L391.070453,607.521906 C390.868627,606.828029 390.395663,606.228029 389.72495,605.868845 L391.323244,601.172927 C392.577008,601.385171 393.840964,600.717824 394.34247,599.491294 C394.40159,599.338233 394.444402,599.185171 394.47702,599.028029 L398.886598,599.309661 Z M387.062487,613.668845 L387.95745,611.038233 C389.209174,611.252518 390.491479,610.579049 390.990946,609.354559 C391.066375,609.168845 391.11938,608.974967 391.154037,608.777008 L396.258791,609.134151 C396.315873,609.803539 396.621669,610.436192 397.119097,610.90558 C394.456634,611.691294 390.666802,612.760682 387.062487,613.668845 L387.062487,613.668845 Z M447.398072,573.3566 C445.968986,575.793335 444.391079,578.142314 442.676583,580.395375 C442.48495,580.152518 442.264777,579.934151 441.999754,579.764763 L443.683671,574.913743 C444.870159,575.052518 446.05257,574.419865 446.54796,573.274967 L447.398072,573.3566 Z M373.503493,586.744355 L389.129668,591.385171 C384.832215,595.517824 380.840558,600.097416 377.354484,604.954559 L357.418624,604.70558 C362.060607,597.491294 367.489505,591.589253 373.503493,586.744355 L373.503493,586.744355 Z M326.070459,652.444355 C325.956295,652.679049 326.0093,652.883131 326.131618,653.028029 C326.231511,653.236192 326.439453,653.368845 326.74321,653.295375 C342.575287,649.53211 358.880329,648.448437 374.592127,644.021906 C388.326443,640.1566 401.400241,634.274967 413.193773,626.195375 C425.641708,617.670886 435.578038,606.93211 442.849867,593.697416 C446.549998,586.952518 449.283814,579.754559 452.519136,572.789253 C454.665824,568.164763 456.930753,563.352518 458.021425,558.317824 C458.266062,558.144355 458.280332,557.893335 458.168207,557.674967 C458.319066,556.921906 458.431191,556.166804 458.516814,555.40762 C458.527008,555.403539 458.537201,555.395375 458.549433,555.387212 C458.840958,555.117824 458.802224,554.734151 458.602437,554.479049 C458.626901,554.199457 458.671751,553.925988 458.686021,553.644355 C458.720678,552.842314 457.483224,552.691294 457.446528,553.495375 C457.426142,553.923947 457.36906,554.348437 457.322171,554.772927 C446.480685,564.164763 431.58842,559.991294 418.524816,561.044355 C404.623331,562.166804 390.929787,565.915784 378.702025,572.677008 C366.637354,579.350478 356.440077,589.158641 348.921573,600.695375 C338.546935,616.593335 334.598089,635.628029 326.070459,652.444355 L326.070459,652.444355 Z" id="Fill-26"></path>
                </g>
            </g>
        </g>
    </g>
</svg>